<svg enable-background="new 0 0 240 240" viewBox="0 0 240 240" xmlns="http://www.w3.org/2000/svg"
  xmlns:xlink="http://www.w3.org/1999/xlink">
  <clipPath id="a">
    <circle cx="120" cy="120.1" r="120" />
  </clipPath>
  <circle cx="120" cy="120.1" fill="#00a2f6" r="120" />
  <g clip-path="url(#a)">
    <path
      d="m147.7 196.7c11.5 24 17.6 49.9 17.5 76.5h.1l.3 13.4s.7-.5 2.9-1c1.3-.3 3.1-.6 5.6-.8h.4c6.5.1 12.8 3.2 16.8 8.4 2.2 2.8 4 8.3 2.1 11.6-1.9 3.4-5.5 4.6-9.1 5.4-1.6.3-3.1.6-4.6.9l-16.4 3.2-3.6.7c-2.9.6-7.8-.9-8.4-3.7l-.8-36.6c.6-25.3-4.9-48.9-15.8-71.7 4.3-2.1 8.7-4.2 13-6.3m-.7-3.4c-.3.1-.5.1-.8.3l-7 3.4-6.1 2.9c-1.7.8-2.5 2.9-1.6 4.7 11 22.8 16 45.8 15.5 70.1v.2l.8 36.6c0 .2 0 .4.1.6.5 2.5 2.5 4.6 5.5 5.7 2.3.9 4.9 1.2 7 .7l3.6-.7 16.4-3.2c.6-.1 1.2-.2 1.8-.3 1-.2 1.9-.3 2.9-.6 3.9-.8 8.7-2.4 11.4-7.1 2.9-5 .4-12.1-2.3-15.5-4.7-5.9-11.9-9.6-19.5-9.7-.2 0-.6 0-.7 0-1.8.1-3.4.3-4.8.6l-.2-8.8c0-.2 0-.3-.1-.5.1-26.7-5.9-52.7-17.8-77.4-.9-1.6-2.6-2.3-4.1-2z" />
    <path d="m165.2 273.2-14.7 1.6c.6-25.3-4.9-48.9-15.8-71.7 4.4-2.1 8.7-4.2 13.1-6.3 11.5 23.9 17.6 49.9 17.4 76.4z"
      fill="#fff" />
    <path clip-rule="evenodd"
      d="m193.3 304.9c-2.8 4.8-8.8 5.3-13.7 6.3l-16.4 3.2-3.6.7c-2.8.6-7.8-.8-8.4-3.7l-.8-36.6 14.7-1.6.3 13.4s1.6-1.2 8.5-1.7h.4c6.5.1 12.8 3.3 16.8 8.4 2.3 2.7 4.1 8.3 2.2 11.6z"
      fill="#1f81b3" fill-rule="evenodd" />
  </g>
  <g clip-path="url(#a)">
    <path d="m138 283.4-14.7 1.5c.6-25.3-4.9-48.9-15.8-71.7 4.4-2.1 8.7-4.2 13.1-6.3 11.4 23.9 17.6 50 17.4 76.5z"
      fill="#fff" />
    <path
      d="m120.5 206.9c11.5 23.9 17.6 50 17.5 76.5l.3 13.4s.7-.5 2.9-1c1.3-.3 3.1-.6 5.6-.8h.4c6.5.1 12.8 3.2 16.8 8.4 2.2 2.8 4 8.3 2.1 11.6-1.9 3.4-5.5 4.6-9.1 5.4-1.6.3-3.1.6-4.6.9l-16.4 3.2-3.6.7c-2.9.6-7.8-.9-8.4-3.7l-.8-36.6c.6-25.3-4.9-48.9-15.8-71.7 4.4-2.1 8.8-4.2 13.1-6.3m-.7-3.4c-.3.1-.5.1-.8.3l-5.9 2.9-7.1 3.4c-1.7.8-2.5 2.9-1.6 4.7 11 22.8 16 45.8 15.5 70.1v.2l.8 36.6c0 .2 0 .4.1.6 1 5.3 8.1 7.4 12.5 6.5l3.6-.7 16.4-3.2 1.8-.3c1-.2 1.9-.3 2.9-.6 3.9-.8 8.7-2.4 11.4-7.1 2.9-5 .4-12.1-2.3-15.5-4.7-5.9-11.9-9.6-19.5-9.7-.2 0-.6 0-.7 0-1.8.1-3.4.3-4.8.6l-.2-8.8c0-.1 0-.3 0-.4 0-26.4-6.1-53.2-17.8-77.5-.4-.8-1.1-1.5-2-1.8-1-.4-1.7-.4-2.3-.3z" />
    <path clip-rule="evenodd"
      d="m166.1 315.1c-2.8 4.9-8.8 5.3-13.7 6.3l-16.4 3.2-3.6.7c-2.8.6-7.8-.8-8.4-3.7l-.8-36.6 14.7-1.5.3 13.4s1.7-1.2 8.5-1.7h.4c6.5.1 12.8 3.3 16.8 8.4 2.3 2.6 4.1 8.2 2.2 11.5z"
      fill="#2698d2" fill-rule="evenodd" />
  </g>
  <g clip-path="url(#a)">
    <path
      d="m123.7 68.8c-1.4 2.5-3.9 4.1-6.7 4.7-2 .4-4.2.3-6.1-.5 0 0 0 0-.1 0-1.4-.6-4.9-2.1-5-2.2-1.7-.7-3.1-1.1-4.3-.9-.9.2-1.7.8-2.3 1.9-1.6 2.7-.3 4.9-3 5.9-1.4.5-2.6 1.3-3.5 1.5-.7.1-1.2 0-1.6-.5-3.2-4.1-2.9-11.9-.8-16.6 1.3-2.7 3.5-4.9 6.3-6.5 1.9-1.1 3.8-1.8 5.5-2.2 3.9-.8 7.4-.1 11.4 1.4 3.8 1 5.8 2.4 6.5 2.7 1.7.8 3 1.9 3.9 3.3 1.3 2.4 1.4 5.4-.2 8z"
      fill="#fff" />
    <path
      d="m126.8 59.1c-.6-.9-1.2-1.8-2.1-2.5-1-.9-2.2-1.7-3.5-2.2-.1-.1-.2-.1-.4-.2-1.1-.6-3.1-1.7-6.4-2.6-3.7-1.4-8.1-2.6-13.2-1.5-2.2.5-4.3 1.3-6.5 2.6-3.6 2.1-6.2 4.8-7.7 8-2.7 5.8-2.9 14.9 1.2 20.2 1.2 1.6 3.1 2.3 5.2 1.8 1-.2 1.8-.6 2.7-1 .4-.2.9-.4 1.4-.6 3.5-1.3 4-4.1 4.3-5.7.1-.7.2-1.3.5-1.8.1-.1.1-.2.1-.2.2 0 .8.1 2 .6.6.3 1.5.7 3.1 1.4.6.2 1.2.5 2 .9h.1c2.6 1.1 5.4 1.3 8.2.7 3.8-.8 7.1-3.2 9-6.4 2.1-3.7 2.1-8 0-11.5zm-3.1 9.7c-1.4 2.5-3.9 4.1-6.7 4.7-2 .4-4.2.3-6.1-.5 0 0 0 0-.1 0-1.4-.6-4.9-2.1-5-2.2-1.7-.7-3.1-1.1-4.3-.9-.9.2-1.7.8-2.3 1.9-1.6 2.7-.3 4.9-3 5.9-1.4.5-2.6 1.3-3.5 1.5-.7.1-1.2 0-1.6-.5-3.2-4.1-2.9-11.9-.8-16.6 1.3-2.7 3.5-4.9 6.3-6.5 1.9-1.1 3.8-1.8 5.5-2.2 3.3-.7 6.4-.2 9.7.8.5.2 1.1.4 1.7.6 3.8 1 5.8 2.4 6.5 2.7 1.7.8 3 1.9 3.9 3.3 1.3 2.4 1.4 5.4-.2 8z" />
    <path
      d="m123.7 68.8c-1.4 2.5-3.9 4.1-6.7 4.7-2 .4-4.2.3-6.1-.5 0 0 0 0-.1 0-1.4-.6-4.9-2.1-5-2.2-.6-.6.7-1.8 1.8-2.5.6-.4 1.4-.6 2.1-.6-1-.1-1.8-.6-2.4-1.3-1.1-1.5-.6-3.6 1.1-4.8.8-.5 1.8-.7 2.7-.6-.8-.2-1.6-.6-2.1-1.2-.2-.3-.3-.6-.4-.9-.2-.7 0-1.5.4-2.2 0 0 .6-1.5 2.7-2.3.5.2 1.1.4 1.7.6 3.8 1 5.8 2.4 6.5 2.7 1.7.8 3 1.9 3.9 3.3 1.4 2.2 1.5 5.2-.1 7.8z"
      fill="#62321c" />
  </g>
  <g clip-path="url(#a)">
    <path
      d="m73.6 83.5c.1 2-2.6 4.5-4.9 5.2-.2.1-.3.1-.5.1-.8.2-1.4 0-2-.3-.5-.4-1.1-1-1.9-1.4 0 0 0 0-.1-.1-.4-.3-1-.6-1.6-.9-.9-.4-1.7-.5-2.4-.4-1.4.3-2.3 1.8-3.3 3.8 0 .1-1.6 3.8-2.3 5.3v.1c-1.3 2.8-3.8 4.7-6.6 5.3-1.9.4-4 .2-6-.7-3-1.4-4.9-4.1-5.4-7.1-.3-1.8-.1-3.7.7-5.5 1.3-3 4.1-8 4.1-8 2.9-4.6 6.4-8 12-9.2.6-.1 1.2-.2 1.9-.3 3.2-.4 6.3 0 9.1 1.6 4.8 2.8 8.8 6.7 9.2 12.5z"
      fill="#fff" />
    <path
      d="m66.1 68c-3.3-1.9-7.1-2.6-11.3-2.1-.7.1-1.5.2-2.2.4-7.8 1.7-11.8 6.9-14.2 10.8-.4.6-.9 1.6-1.7 3.1-.2.3-.4.7-.5 1.1-.7 1.4-1.5 3-2.1 4.3-1 2.4-1.4 5-.9 7.5.7 4.3 3.5 7.9 7.4 9.7 2.6 1.2 5.4 1.5 8.2.9 4-.9 7.3-3.6 9.1-7.3v-.1c.8-1.7 1.3-2.9 1.7-3.8.3-.7.5-1.2.6-1.5.4-.9.7-1.4.9-1.7h.1c.7.3 1.2.7 1.8 1.2 1.1.9 3 2.4 6.1 1.8.3-.1.5-.1.8-.2 3.3-1 7.6-4.7 7.4-8.8-.6-6.2-4.3-11.3-11.2-15.3zm7.5 15.5c.1 2-2.6 4.5-4.9 5.2-.2.1-.3.1-.5.1-.8.2-1.4 0-2-.3-.6-.3-1.2-.9-1.9-1.4 0 0 0 0-.1-.1-.4-.3-1-.6-1.6-.9-.9-.4-1.7-.5-2.4-.4-1.4.3-2.3 1.8-3.3 3.8 0 .1-1.6 3.8-2.3 5.3v.1c-1.3 2.8-3.8 4.7-6.6 5.3-1.9.4-4 .2-6-.7-3-1.4-4.9-4.1-5.4-7.1-.3-1.8-.1-3.7.7-5.5 1.3-3 4.1-8 4.1-8l.2-.2c2.8-4.5 6.3-7.7 11.8-8.9.6-.1 1.2-.2 1.9-.3 3.2-.4 6.3 0 9.1 1.6 4.8 2.7 8.8 6.6 9.2 12.4z" />
    <path
      d="m56.9 89.6c0 .1-1.6 3.8-2.3 5.3v.1c-1.3 2.8-3.8 4.7-6.6 5.3-1.9.4-4 .2-6-.7-3-1.4-4.9-4.1-5.4-7.1-.3-1.8-.1-3.7.7-5.5 1.3-3 4.1-8 4.1-8l.2-.2c2.2-.5 3.4.4 3.4.4 1.1.6 1.9 1.5 2 2.7.1.9-.2 1.8-.7 2.5.6-.7 1.5-1.1 2.4-1.2 2.1-.1 3.9 1.4 4.1 3.5.1 1.1-.3 2-.9 2.8.6-.4 1.2-.8 2-.8 1.2-.3 3.1-.1 3 .9z"
      fill="#62321c" />
  </g>
  <g clip-path="url(#a)">
    <path
      d="m166.7 164.6c1.5 1.1 3.5 1.9 5.4 2.1 10.8 1.1 24.9-.7 30.9-8.8.7-1 1.6-3.2 2-4.3-5.4-.3-10.5-1.7-15.2-5.8-.3 1.1-.8 2.2-1.7 3.3-1.8 2.3-6.5 1.7-9 1.9-3.7.3-7.7.8-10.5 3.3-2.1 2.1-5.4 5.8-1.9 8.3z"
      fill="#fff" />
    <path
      d="m186.3 117.8c-2.7 2.7-4.2 6.7-4.3 10.5-.1 1.9 1.6 5.1 3.1 6.3 1.5 1.1 3.1.8 4.8 1.2 1 .2.9-.1 1.3 1 .3.7.3 1.6.3 2.3.1 3.1-1 6.1-1.6 9.1-.8 4 .4 9.1 3.6 11.3 1.5 1 3.4 1.4 5.7.8 4.3-1.2 6.3-5 7-9.1.8-4.5 1.3-8.8 1.6-13.3.2-4.9 0-10-2.1-14.5-2.1-4.6-7-9.1-12.3-8.9-2.9.2-5.3 1.4-7.1 3.3z"
      fill="#1f81b3" />
    <path
      d="m185.2 150.9c-3.1-.2-4.8-1.7-7.7-3-3.9-1.8-8.4-.7-11.6 1.9-1.7 1.4-2.4 3.1-3.5 4.9-1.3 2.1-3.8 3.8-3.3 6.6.4 2.4.1 5 2 7 1.4 1.5 3.8 3.1 5.8 3.6s4.5.9 6.5.9c3.5 0 6.3-1.7 9.8-1.8 3.7-.2 7.3.3 11-.1 2.9-.3 5.6-1.6 7.4-3.9 1.7-2.3 2.4-5 4-7.4 2.7-3.8 6.1-11.6 2.5-15.8.6-1.4 1.5-4 .8-5.5-1.7-3.5-8.4-.2-10.7.6-1.7.5-3.4.6-5.1-.1-1.3-.5-1.9-1.1-3.3-.3-3 1.8-1.3 4.5-1.6 7-.1.9-.6 2.2-1.1 2.9-.6 1-1.6 1.1-1.9 2.5z"
      fill="#323637" />
    <path
      d="m211 137.3c-.8-1.8-2.8-3.6-7.6-2.6-1.7.4-3.4 1-4.7 1.5-.5.2-1 .4-1.3.5-.2.1-.4.1-.6.2-1 .2-2 .2-2.9-.2-.2-.1-.4-.2-.6-.2-.8-.3-1.8-.8-3.2-.5-.5.1-1 .3-1.6.7-3.4 2.1-3 5.2-2.8 7.1.1.7.1 1.3.1 1.7 0 .5-.4 1.4-.7 1.8-.1.1-.2.2-.4.3-.2.2-.6.5-.9.8-1-.3-2-.8-3.1-1.4-.6-.3-1.3-.7-2-1-.1 0-.2-.1-.3-.1-.6-.3-1.3-.5-1.9-.7-1.9-.5-3.9-.5-5.9-.1-2.2.5-4.4 1.5-6.2 3-1.7 1.4-2.6 2.9-3.4 4.4-.2.4-.4.7-.6 1.1-.3.5-.7 1-1.1 1.5-1.3 1.5-3 3.6-2.5 6.7.1.5.1 1.1.2 1.6.2 2 .4 4.5 2.4 6.6 1.6 1.7 4.4 3.6 7 4.3 1.5.4 4.5 1 7.1 1 1.1 0 2.2-.1 3.4-.4.8-.2 1.6-.4 2.4-.6l2.1-.6c.8-.2 1.4-.3 2-.3.9-.1 1.9 0 2.8 0h1.8.8c1.8 0 3.7.1 5.7-.1.6-.1 1.1-.1 1.7-.3 3-.7 5.6-2.2 7.4-4.6 1-1.4 1.7-2.8 2.4-4.3.5-1.2 1-2.2 1.7-3.2 2.7-3.8 6.5-11.9 3.2-17.5.5-1.7 1-4.2.1-6.1zm-5.4 22.3c-1.6 2.3-2.3 5.1-4 7.4-1.5 2-3.6 3.2-6 3.7-.5.1-.9.2-1.4.2-2.2.2-4.4.1-6.6.1-.9 0-1.8 0-2.6-.1-.6 0-1.2 0-1.7 0-.8 0-1.6.2-2.4.3-1.5.3-3 .8-4.5 1.2-.9.2-1.9.3-2.9.3-2 0-4.6-.4-6.5-.9-2-.5-4.4-2.1-5.8-3.6-1.9-2-1.6-4.6-2-7-.5-2.8 2-4.5 3.3-6.6 1.1-1.8 1.8-3.5 3.6-4.9 1.5-1.3 3.3-2.2 5.2-2.6 1.6-.4 3.4-.3 5 .1.4.1.9.3 1.3.5.3.1.6.3.9.4 2.3 1.2 4.1 2.4 6.8 2.6.3-1.4 1.2-1.4 1.9-2.4.5-.7 1-2.1 1.1-2.9.3-2.5-1.4-5.2 1.6-7 .3-.2.6-.3.9-.4.8-.2 1.4.2 2.4.6 1.4.5 2.8.6 4.2.3.3-.1.6-.1.8-.2 1.2-.4 3.5-1.4 5.7-1.9 2.1-.5 4.2-.4 5 1.3.7 1.5-.1 4.1-.8 5.5 3.6 4.4.2 12.2-2.5 16z"
      fill="#494c4e" />
    <path
      d="m203.7 148c-1.1.2-2.4.3-3.5.4-1.7 0-4.1-.4-6-1-.6-.2-.9-.9-.7-1.5s.9-.9 1.5-.7c1.7.6 3.8.9 5.2.9 2.2 0 4.1-.5 4.4-.8.3-.5 1.1-.7 1.6-.3.5.3.7 1.1.3 1.6-.4.7-1.5 1.2-2.8 1.4z"
      fill="#494c4e" />
    <path
      d="m189.4 162.9c-2.1-2.3-3.8-5.9-2.8-8.5.2-.6-.1-1.3-.7-1.5-.1 0-.2 0-.3 0 0-.1-.1-.3-.2-.4-.4-.5-1.1-.7-1.6-.3-1.5 1-3.9 5.3-3.5 8.1.2 1.2.9 2.1 2.1 2.5.2.1.4.1.6 0 .4-.1.7-.4.9-.8.2-.6-.2-1.3-.8-1.5-.2-.1-.4-.1-.5-.6-.2-1.1.6-3 1.4-4.3-.3 3.3 1.6 6.8 3.6 9 .3.3.7.4 1.1.4.2 0 .4-.1.5-.3.6-.6.6-1.3.2-1.8z"
      fill="#494c4e" />
    <path
      d="m174.7 260.3c-.9.2-2.1.1-3.7-1-2.6-1.8-3.2-6.3-3.6-9.9-.1-1-.3-2-.4-2.7-.1-.5.1-1 .5-1.2s1-.5 2-.2c2.5.8 6.6 5.6 7.6 8.5.9 2.3.4 4.8-1.1 6-.3.1-.7.4-1.3.5zm-5.2-12.3c0 .4.1.7.1 1.1.4 3 .9 7.1 2.6 8.3.4.3 1.6 1 2.2.5s.9-1.8.3-3.3c-.7-2.3-3.5-5.4-5.2-6.6z"
      fill="#d1dce1" />
    <path
      d="m113.9 262.4c0 1.2-.1 2.5-.3 3.7-.1 1.2-.2 2.3-.2 3.3 0 3.9.5 7.9 1.3 12.6-.4-.2-.8-.2-1.3-.1-.4.1-.8.3-1 .5-.9-4.9-1.4-9-1.4-13 0-1 .1-2.1.2-3.2-.7 1.4-1.7 2.6-2.9 3.1s-2.6.3-4-.5c-2-1.2-2.5-3.5-1.2-5.8.5-.8 1.2-1.6 2-2.4 1 .3 1.9.6 2.9.8-1.2.7-2.2 1.8-2.8 2.8-1 1.8-.1 2.4.3 2.7 1.1.7 1.7.5 1.9.4 1.4-.6 2.3-3.3 2.9-5.4 1.3.2 2.4.4 3.6.5z"
      fill="#d1dce1" />
    <path clip-rule="evenodd"
      d="m180.6 161.9c-1.2-2.6-3.3-5.2-4.1-7.9-1.4-4.6.5-9.3.9-13.9 1.4-14.8-1-28.1-7.8-41.4-5.2-10.2-13.6-20.6-24.2-25.4-7.4-3.3-14.9-4.3-22.5-6.5-5.2-1.5-9.4-3.3-15.2-2.7-4.2.4-7.2 3.3-10.9 4.8-4.2 1.7-8.5 2.7-12.6 4.8-8 4.1-19.2 10.4-23.1 18.7-4.9 10.5-10.2 21.7-12 33.4-.9 5.9-1 12 .3 17.9 2.3 10.8 10.7 15.7 16.7 24 1.6 2.2 3.7 5.1 4.5 7.8 6.9 22.2-.4 49.6 14.4 68.9 12.4 16.2 32.6 18.2 51.5 15 2.3-.4 4.5-.9 6.7-1.4.1 0 .2-.1.3-.1l4.5-1.1c2.2-.6 4.5-1.2 6.7-2 14.9-5.1 30.3-15.1 36.8-30.1 4.7-10.8 3.7-26.7.2-37.8-2.6-8.9-7.4-16.8-11.1-25z"
      fill="#323637" fill-rule="evenodd" />
    <path
      d="m194 186c-1.4-4.4-3.3-8.6-5.3-12.7-.4-.8-.8-1.6-1.2-2.4-.3-.7-.7-1.4-1-2-1.1-2.1-2.1-4.3-3.2-6.5-.3-.5-.5-1-.7-1.5-.5-1.2-1.2-2.3-1.9-3.4-.1-.1-.1-.2-.2-.3-.8-1.3-1.6-2.7-1.9-3.9-.5-1.6-.5-3.3-.3-5.1.1-.8.2-1.6.4-2.4-.1 0-.2-.1-.3-.1-.6-.3-1.3-.5-1.9-.7-.1.8-.3 1.5-.4 2.3-.3 2.2-.4 4.4.3 6.6.8 2.7 2.9 5.3 4.1 7.9 1.4 3.1 2.9 6 4.4 9 .4.8.8 1.6 1.2 2.4 2.2 4.4 4.2 8.8 5.6 13.4 3.5 11.2 4.5 27-.2 37.8-6.5 15-21.9 25-36.8 30.1-2.2.7-4.5 1.4-6.7 2l-4.5 1.2-.3.1c-1 .3-2.1.5-3.1.7-1.2.3-2.4.5-3.6.7-7.5 1.3-15.3 1.7-22.7.8-2.1-.3-4.1-.6-6.1-1.1-8.7-2.2-16.7-6.7-22.7-14.6-8.7-11.4-9.7-25.5-10.5-39.7 0-.8-.1-1.6-.1-2.4-.5-8.8-1.1-17.6-3.4-25.8-.1-.3-.2-.6-.3-.9-.1-.5-.3-1-.6-1.4-.7.6-1.3 1-1.9 1.5.1.2.2.4.3.7.2.5.3 1.1.5 1.6 2.2 7.9 2.7 16.7 3.2 25.1v.4c0 .7.1 1.3.1 2 .8 14.2 2 28.7 11 40.5 5.5 7.3 13 12.3 22.1 14.9 1 .3 1.9.6 2.9.8.7.2 1.5.3 2.3.5 1.1.2 2.3.4 3.5.5 7 .9 14.7.6 23-.8 1.2-.2 2.5-.4 3.7-.7 1.1-.2 2.1-.5 3.2-.8h.2l4.6-1.2c2.3-.6 4.7-1.3 6.9-2 18.4-6.3 32.3-17.8 38.2-31.4 4.9-11.9 3.6-28.4.1-39.7z"
      fill="#494c4e" />
    <path
      d="m179.7 140.3c-.1 1.5-.4 2.9-.7 4.4-.1.4-.1.8-.2 1.2-.1 0-.2-.1-.3-.1-.6-.3-1.3-.5-1.9-.7.3-1.6.6-3.3.8-4.9 1.4-14.8-1-28.2-7.8-41.4-5.2-10.2-13.6-20.6-24.2-25.4-7.4-3.3-14.9-4.3-22.5-6.5-5.2-1.5-9.4-3.3-15.2-2.7-.2 0-.4 0-.6.1-.4.1-.8.2-1.1.2-.2.1-.4.1-.6.2-.4.1-.8.3-1.2.4-.2.1-.3.2-.5.2-.7.3-1.4.7-2.1 1.1-1.6.9-3.1 1.8-4.8 2.5-4.2 1.7-8.5 2.7-12.6 4.8-8 4.1-19.2 10.4-23.1 18.7-4.9 10.5-10.2 21.7-12 33.4-.9 5.9-.9 12 .3 17.9 2.3 10.7 10.6 15.7 16.7 24 1.3 1.8 3 4.1 4 6.4-.7.6-1.3 1-1.9 1.5-.8-2.1-2.6-4.6-3.9-6.4 0 0 0-.1-.1-.1.3 1 .4 1.9.5 2.7.1.7.1 1.3.3 1.7.1.5.7 1.3 1 1.6.1.1.2.2.4.3.3.1.7.4 1 .7.3-.1.5-.3.8-.4.1.2.2.4.3.7.2.5.3 1.1.5 1.6-.7.4-1.4.7-2.2.9-.5-1.3-1.5-1.2-2.3-2-.7-.6-1.4-1.8-1.7-2.7-.8-2.4.3-5.4-2.9-6.6-.6-.2-1-.2-1.3-.1-.6.1-1.1.6-1.8 1s-1.5.7-2.3.9c-.9.2-1.8.2-2.7.1-2.9-.3-5.2-1.5-7.9-2.8-.7-.3-1.5-.6-2.1-.4-.4.1-.8.3-1.1.8-1.3 2-.2 4.5.7 6.5.4.7 1.4 1.9 1.5 2.6.2.8-.6 2.1-.7 3.1-.2 4.5 3.2 9.2 6.3 12.1 2.6 2.4 3.6 5.1 6.8 6.5 5.1 2.2 9.7 6.1 15.5 5.4.3 0 .7-.1 1.1-.2l.3-.1v.4c0 .7.1 1.3.1 2-.4.1-.8.2-1.2.2-5 .6-9-1.5-12.8-3.6-1.4-.7-2.6-1.4-3.9-1.9-2.7-1.2-4.2-3-5.5-4.7-.7-.8-1.3-1.6-2.1-2.3-2.2-2.1-7.3-7.6-7-13.9 0-.7.3-1.4.5-2 0-.1.1-.4.2-.5-.1-.2-.3-.4-.4-.6-.3-.5-.7-1-.9-1.5-.9-2.1-2.5-5.6-.5-8.7.6-1 1.5-1.6 2.6-1.8 1.4-.3 2.7.2 3.6.6l.8.4c2.2 1 4.1 1.9 6.3 2.2.7.1 1.3.1 1.9-.1.6-.1 1.1-.3 1.5-.6.2-.1.3-.2.5-.3.5-.4 1.2-.8 2.1-1 .8-.2 1.7-.1 2.6.3.4.2.8.3 1.2.6-1.2-1.4-2.4-2.7-3.6-4-4.5-4.8-9.2-9.9-10.9-17.8-1.2-5.8-1.3-12.1-.3-18.7 1.9-12 7.1-23.1 12.1-33.8l.1-.2c4-8.5 14.4-14.8 24.1-19.8 2.6-1.4 5.3-2.2 7.8-3.1 1.7-.6 3.3-1.1 4.9-1.8 1.2-.5 2.3-1.1 3.5-1.8 2-1.2 4.1-2.4 6.7-2.9.5-.1.9-.2 1.4-.2 5.2-.5 9.2.7 13.4 2 .9.3 1.8.6 2.7.8 2.5.7 5 1.3 7.5 1.9 5.1 1.2 10.3 2.4 15.4 4.7 9.7 4.4 19 14 25.3 26.5 6.6 13 9.2 27 7.8 42.3z"
      fill="#494c4e" />
    <path
      d="m97.9 169.1c-.5.1-1 .1-1.5-.2-.9-.5-1-1.5-1-2.4 0-.3-.1-1-.2-1.1s-.5-.1-1.4.2c-.3.1-.5.1-.7 0-1.6-.6-2.4-1.6-3.2-2.6-.2-.2-.4-.5-.6-.7-.8-1-.9-1-2.1-1.9-3.7-2.9-7.9-6.2-9.7-11.1-.6-1.7-1.2-3.5-1.8-5.2-.8-2.4-1.6-4.8-2.6-7.3-4.4-11.4-5.5-21.5-3.3-30.1.9-3.6 2.2-7 3.4-10.3.4-1.1.8-2.2 1.2-3.3.2-.6.9-.9 1.5-.7s.9.9.7 1.5c-.4 1.1-.8 2.3-1.3 3.4-1.3 3.4-2.5 6.6-3.3 10.1-2 8.1-.9 17.8 3.2 28.7.9 2.5 1.8 4.9 2.6 7.4.6 1.7 1.2 3.5 1.8 5.2 1.5 4.3 5.5 7.3 8.9 10 1.2.9 1.4 1.1 2.4 2.2.2.3.5.6.7.8.7.8 1.1 1.4 1.9 1.8 1.3-.3 2.3-.2 3 .3 1.1.7 1.2 2 1.2 2.9v.3s.1 0 .1-.1c.6-.3 1.3 0 1.6.5.3.6 0 1.3-.5 1.6-.3-.2-.6 0-1 .1z"
      fill="#494c4e" />
    <path
      d="m70.5 90.3c-.3.1-.7 0-1-.3-.5-.4-.6-1.2-.1-1.7 1.7-2 4.6-3.4 8.5-4.1.6-.1 1.3.3 1.4.9s-.3 1.2-.9 1.4c-3.4.6-5.8 1.7-7.1 3.3-.3.3-.5.4-.8.5z"
      fill="#494c4e" />
    <path
      d="m87.5 188.6c-1.3 1.4-3.1 2.6-4.8 3.1-10.4 3.2-24.6 4.2-32.1-2.6-.9-.8-2.2-2.8-2.8-3.8 5.3-1.3 9.9-3.7 13.8-8.7.5 1 1.2 2 2.3 2.9 2.2 1.9 6.7.4 9.2.1 3.7-.5 7.7-.8 10.9 1.2 2.5 1.6 6.5 4.6 3.5 7.8z"
      fill="#fff" />
    <path
      d="m70 151.3c-1.4-1.2-10.2-2.8-7.4-5.4 1.3-1.2 7.1-1.3 4.4-4.2-1-1.2-3-1.8-4.5-1.7-1.2 0-2.1.4-3.2.7-2.4.7-4.7 1-6.9 2.4-1.2.8-2.6 1.9-3.7 3.1-2.3 1.9-3.7 5.4-4.8 8.1-2.6 6.2-3.5 9.7-1.8 16.3 1.1 4.5 2.5 8.5 4.1 12.8 1.5 3.9 4.2 7.2 8.7 7.5 2.4.2 4.2-.6 5.4-1.9 2.7-2.8 2.9-8.1 1.3-11.8-1.2-2.8-2.8-5.6-3.4-8.6-.1-.7-.3-1.6-.2-2.3.3-1.2.1-.8 1.1-1.3 1.6-.7 3.2-.7 4.5-2.1.9-1.1 1.7-3.3 1.9-5.2 1.5 1 3.1 2.1 5.3 1.7 5.5-1.3 1.5-6.1-.8-8.1z"
      fill="#2698d2" />
    <path
      d="m66.7 178.7c3-.8 4.4-2.6 6.9-4.5 5-3.6 11.6-1.4 15.9 2.1 3.9 3.1 7.3 9.8 4.2 14.7-1.1 1.8-3.1 3.8-5 4.7-3.6 1.7-7 3.6-10.7 5-2.4.9-4.7 2.1-7.3 2.4-5.9.7-10.4-3.2-15.5-5.4-3.3-1.4-4.3-4.1-6.9-6.5-3.1-3-6.5-7.6-6.3-12.1 0-.9.8-2.3.7-3.1-.1-.7-1.2-1.9-1.5-2.6-.9-1.9-2-4.5-.7-6.5.8-1.2 2-1 3.2-.4 2.7 1.3 5 2.5 7.9 2.8 1.7.2 3.5-.1 5-1.1 1.2-.7 1.7-1.4 3.1-.9 3.3 1.2 2.2 4.2 2.9 6.6.3.8 1 2.1 1.7 2.7.9.9 1.8.8 2.4 2.1z"
      fill="#323637" />
    <path
      d="m91 174.5c-4.5-3.6-9.8-5.1-14.3-4.1-1.6.4-3.1 1-4.5 2-.7.5-1.4 1.1-2 1.6 0 0-.1.1-.1.1-.7.6-1.3 1-1.9 1.5.1.2.2.4.3.7.2.5.3 1.1.5 1.6.7-.4 1.4-.9 2-1.4.8-.7 1.7-1.4 2.7-2.1 1.1-.8 2.3-1.3 3.6-1.6 4.3-.9 9 1 12.3 3.7 4 3.1 7.4 9.8 4.2 14.7-1.1 1.8-3.1 3.8-5 4.7-3.6 1.7-7 3.6-10.7 5-1.2.5-2.4 1-3.6 1.4-.8.3-1.5.5-2.3.7v.4c0 .7.1 1.3.1 2h.1c.8-.2 1.5-.4 2.2-.6.9-.3 1.7-.6 2.5-1 .6-.2 1.2-.5 1.8-.7 2.6-1 5-2.2 7.4-3.4 1.2-.6 2.3-1.2 3.5-1.7 2.4-1.1 4.8-3.6 6-5.6 3.6-5.9.3-13.9-4.8-17.9z"
      fill="#494c4e" />
    <path
      d="m51.8 179.1c-.1 0-.3.1-.4.1-2.3.4-5.3.6-6.5-.6-.5-.5-.4-1.2 0-1.7.5-.5 1.2-.5 1.6 0 .4.3 2.3.3 4.5-.1 1.4-.3 3.4-1 4.9-1.9.6-.3 1.3-.1 1.6.4.3.6.1 1.3-.4 1.6-1.6 1.1-3.6 1.9-5.3 2.2z"
      fill="#494c4e" />
    <path
      d="m68.3 179.6c-.6-.3-1.3 0-1.5.6-.1.2-.1.3-.1.5-.1 0-.2.1-.3.1-.5.3-.7 1.1-.4 1.6 1.5 2.4.6 6.2-1 8.9-.3.6-.2 1.3.4 1.6.3.2.6.2.9.1s.6-.3.8-.5c1.6-2.6 2.7-6.3 1.8-9.5 1 1.2 2.1 2.8 2.2 4 0 .5-.1.6-.3.7-.6.3-.8 1-.5 1.6.3.5.8.7 1.3.6.1 0 .2-.1.3-.1 1.1-.6 1.6-1.6 1.6-2.8-.3-3-3.6-6.7-5.2-7.4z"
      fill="#494c4e" />
    <path
      d="m175.8 177.4-.2.1c-.2.1-.3.1-.5.1-.3.1-.7.1-1 0l1.5 3.6c.7 1.6-.1 3.5-1.7 4.2l-10.3 4.3c-.2.1-.4.1-.6.2-.7.2-1.5.1-2.2-.3-.5-.3-.9-.6-1.2-1.1-.1-.2-.2-.3-.3-.5l-4.3-10.3c-.7-1.6.1-3.5 1.7-4.2l2.3-1h.1.2c.3-.1.7-.2 1-.5.2-.2.3-.6 0-.8-.2-.2-.6-.3-.8-.1-.2.1-.4.2-.5.2-.2-1.3.5-2.7 1.8-3.2.2-.1.4-.1.5-.2.9-.2 1.7 0 2.4.5.1.1.3.2.4.3.2.2.4.5.6.9.1.1.1.3.1.4l2.3-1c.1 0 .2-.1.3-.1.4-.2.9-.2 1.4-.1.4.1.7.2 1 .3.2.1.3.2.5.3.5.3.8.8 1 1.3l1 2.4c.2-.3.5-.6 1-.8l.2-.1c.2-.1.4-.1.6-.2.3-.1.6-.1.9 0 .3 0 .5.1.8.2.5.2.9.7 1.2 1.2l.1.2c.6 1.6 0 3.2-1.3 3.8z"
      fill="#f2c53f" />
    <path d="m160.9 189.7c-.5-.3-.9-.6-1.2-1.1.3.5.7.9 1.2 1.1z" fill="#ef992d" />
    <path
      d="m165.8 183.7c-.3.1-.5.1-.8.1-.4 0-.7-.1-.9-.2-.4-.2-.7-.4-.9-.7-.1-.2-.3-.4-.4-.6-.2-.4-.4-.9-.5-1.3-.2-.8-.2-1.6.1-2.2-.2.1-.4.1-.6 0-.3-.1-.5-.3-.6-.6 0-.2 0-.3 0-.5v-.1c.1-.4.4-.8.6-1.1.2-.2.5-.4.8-.4h.4c.1 0 .3 0 .4.1.2.1.5.2.6.4.1 0 .1-.1.2-.1.1-.1.2-.1.2-.1s.1 0 .2-.1c.1 0 .1-.1.2-.1 0-.3 0-.5.1-.7.1-.1.1-.2.2-.3s.2-.3.3-.3c.2-.2.5-.3.9-.4s.8 0 1.3.2h.1c.1.1.3.2.4.3.2.2.2.5.1.8-.1.2-.2.3-.4.4.6.2 1.2.7 1.8 1.3.3.4.5.8.7 1.3.1.2.2.5.2.7.1.3.1.7 0 1.1-.1.3-.2.6-.4.9-.3.4-.7.7-1.3 1.1l-2.2 1.1c-.3-.2-.5-.1-.8 0zm-2.7-6.7h.4s.1 0 .2.1c.1 0 .1.1.1.2s0 .2-.1.2c-.3.3-.6.8-.8 1.2-.2.5-.3 1.2-.1 2 .1.4.3.8.5 1.2.1.2.2.4.4.5.2.2.4.3.7.5.2.1.4.1.7.1.5 0 .9-.1 1.4-.3l2.2-1.1c.5-.3.8-.5 1.1-.9.2-.2.3-.4.3-.6.1-.3.1-.6 0-.9 0-.2-.1-.4-.2-.6-.2-.4-.4-.8-.6-1.1-.5-.6-1.1-1-1.6-1.2-.5-.1-1-.2-1.5-.1-.1 0-.2 0-.2-.1-.1-.1-.1-.2-.1-.3s0-.1 0-.2c.1-.2.3-.7 1.2-.5h.1c.1 0 .2.1.3.1h.2c.1 0 .1-.1.1-.2s0-.2 0-.3c0 0-.1-.1-.1-.1-.4-.1-.7-.2-1-.1-.2 0-.4.1-.6.2-.1.1-.1.1-.2.2s-.1.2-.1.3c-.1.1-.1.4 0 .6 0 .1 0 .3-.2.4-.1 0-.3.1-.4.1-.1.1-.2.1-.2.1l-.2.1c-.1.1-.2.1-.4.2-.1.1-.3.1-.4-.1s-.4-.3-.5-.3-.2 0-.3-.1c-.1 0-.2 0-.3 0-.2 0-.4.1-.5.3-.2.2-.4.5-.5.8v.1.1c0 .1.1.2.2.2h.2c.1 0 .1-.1.1-.2 0-.1.1-.2.1-.3 0 0 0 0 0-.1.1.2.4 0 .6-.1z"
      fill="#ef992d" />
    <path
      d="m164.1 188.5c-1 .2-2.1.2-2.9-.4-.6-.4-1-1.3-1.4-2.1-.1-.2-.2-.5-.3-.7-.5-.8-.7-1.7-1-2.5-.2-.6-.4-1.1-.6-1.7-.7-1.5-1.3-2.9-1.8-4.4-.1-.3.1-.6.4-.7s.6.1.7.4c.5 1.5 1 2.8 1.7 4.3.3.6.5 1.2.7 1.8.3.8.5 1.5.9 2.3.1.2.2.5.4.7.3.6.6 1.4 1 1.6 1.2.8 3.5-.3 4.5-.7 1.3-.6 2.7-1.2 4-1.8.3-.1.7-.3 1-.4 1-.4 2.1-.8 2.8-1.6.2-.2.6-.3.8-.1s.3.6.1.8c-.9 1-2.1 1.5-3.3 1.9-.3.1-.7.3-1 .4-1.3.6-2.7 1.2-4 1.8-.6.4-1.6.8-2.7 1.1z"
      fill="#ef992d" />
    <path
      d="m178.1 173.4-.1-.2c-.7-1.6-2.5-2.4-4.2-2.1-.3.1-.6.1-.8.3l-.2.1-.4-1c-.8-2-2.9-3.1-5-2.6-.3.1-.5.1-.8.3l-1.2.5c-.9-1.4-2.6-2.1-4.3-1.8-.2 0-.5.1-.7.2-1 .4-1.8 1.2-2.2 2.2-.3.8-.4 1.6-.2 2.4l-1.6.7c-1.1.4-1.9 1.3-2.4 2.4s-.4 2.3 0 3.4l4.3 10.3c.8 2 2.9 3 5 2.6.3-.1.5-.1.8-.2l10.3-4.3c2.2-.9 3.3-3.5 2.4-5.8l-.9-2.2c.1 0 .2-.1.3-.1l.2-.1c.9-.4 1.6-1.2 1.9-2.1s.2-1.9-.2-2.9zm-2.3 4-.2.1c-.2.1-.3.1-.5.1 0 0-.1 0-.2 0 0 0-.1-.1-.1-.1 0-.3-.3-.6-.6-.6-.4 0-.6.3-.6.6s.2.7.4.9c.1.1.2.1.4.1l1.2 2.8c.7 1.6-.1 3.5-1.7 4.2l-10.3 4.3c-.2.1-.4.1-.6.2-.7.2-1.5.1-2.2-.3-.5-.3-.9-.6-1.2-1.1-.1-.2-.2-.3-.3-.5l-4.3-10.3c-.7-1.6.1-3.5 1.7-4.2l2.3-1h.1.2c.3-.1.7-.2 1-.5.2-.2.3-.6 0-.8-.2-.2-.6-.3-.8-.1-.2.1-.4.2-.5.2-.2-1.3.5-2.7 1.8-3.2.2-.1.4-.1.5-.2.9-.2 1.7 0 2.4.5.1.1.3.2.4.3.2.2.4.5.6.9.1.1.1.3.1.4l2.3-1c.1 0 .2-.1.3-.1.1-.1.2-.1.3-.1.4-.1.7-.1 1.1 0 .4 0 .7.2 1 .3.2.1.3.2.5.3.5.3.8.8 1 1.3l1 2.4c.2-.3.5-.6 1-.8l.2-.1c.2-.1.4-.1.6-.2.3-.1.6-.1.9 0 .3 0 .5.1.8.2.5.2.9.7 1.2 1.2l.1.2c.6 1.5 0 3.1-1.3 3.7z"
      fill="#ef992d" />
    <path
      d="m175.4 176.8c-.1 0-.2 0-.3 0-.3 0-.6-.2-.6-.5s.2-.6.5-.6c.4 0 .7-.3.9-.7.1-.3.5-.4.8-.3s.4.5.3.8c-.3.7-.9 1.2-1.6 1.3z"
      fill="#ef992d" />
    <g fill="#f6e298">
      <path
        d="m172 176.6c-.3.1-.5-.1-.7-.3-.6-1.5-1.3-3.3-2.3-4.4-.7-.8-2.5-.3-3.5.3-.3.2-.6.1-.8-.2s-.1-.6.2-.8c1.3-.9 3.8-1.5 5-.1 1.1 1.3 1.9 3.2 2.5 4.7.1.3-.1.7-.4.8z" />
      <path
        d="m173.2 180c-.2 0-.5 0-.6-.3-.3-.5-.7-1.3-.8-2-.1-.3.2-.6.5-.7.3 0 .6.2.7.5.1.5.4 1.1.6 1.5.2.3.1.6-.2.8 0 .2-.1.2-.2.2z" />
      <path
        d="m175.5 175.1c-.2.1-.5 0-.6-.3-.2-.3-.2-.4-.6-.4-.3-.1-.3 0-.5.1-.1.1-.3.2-.5.3-.3.1-.6 0-.8-.3-.1-.3 0-.6.3-.8.1-.1.2-.1.3-.2.4-.2.7-.4 1.4-.2.6.1 1 .3 1.4 1 .2.3.1.6-.2.8-.1-.1-.1 0-.2 0z" />
      <path
        d="m157.5 176.1c-.2.1-.5-.1-.6-.3-.2-.3-.1-.6.2-.8l.6-.4c1.4-.8 3.2-1.8 4.7-2.3.3-.1.6.1.7.4s-.1.6-.4.7c-1.4.4-3.2 1.4-4.4 2.1l-.6.4c-.1.2-.1.2-.2.2z" />
      <path
        d="m163.7 171.5c-.3.1-.6-.1-.7-.4-.1-.6-1-1.1-1.7-1.2-.3-.1-.5-.4-.5-.7.1-.3.4-.5.7-.5.9.2 2.4.8 2.6 2.1.1.3-.1.6-.4.7z" />
      <path
        d="m169 179.8c-.3.1-.6-.1-.7-.4-.3-1-1.5-1.6-2.6-1.4-.3.1-.6-.1-.7-.5-.1-.3.2-.7.5-.7 1.7-.3 3.4.6 3.9 2.2.2.4 0 .7-.4.8.1 0 .1 0 0 0z" />
      <path
        d="m163.7 187.4c-1.9.3-2.6-1.6-2.9-2.3-.1-.3 0-.6.3-.8.3-.1.6 0 .8.3.5 1.5 1.1 1.6 1.5 1.5.3-.1.6.2.7.5.1.4-.1.7-.4.8z" />
    </g>
    <path
      d="m54 166.6c-.7-.4-1.6-.7-2.1-1-1.6-.8-3-1.8-4.6-2.6-1-.6-1.9-1.1-2.7-2-.7-.8-1.2-2.3-2.4-2.4-2.3-.3-2.7 3.9-1.8 5.4 1 1.8 3.6 2.4 5.3 3.1 1.9.7 5 1.9 7 1.6.8-.1 1.7-.5 2.5-.7-.2-.7-.6-1.1-1.2-1.4z"
      fill="#dceff8" />
    <path
      d="m53.2 169.6c-.1 0-.2.1-.4.1-2.2.3-5.1-.7-7.6-1.6-.3-.1-.6-.2-.9-.3-1.8-.6-4-1.4-5-3.2-.8-1.3-.8-4.2.3-5.8.6-1 1.6-1.4 2.7-1.3 1.5.2 2.2 1.4 2.8 2.2.2.2.3.5.4.7.6.7 1.4 1.2 2.3 1.7.6.3 1.2.7 1.7 1 .9.6 1.8 1.1 2.8 1.6.2.1.4.2.7.3.5.2 1 .4 1.5.7 1 .6 1.6 1.2 1.8 2 .1.3 0 .6-.2.9s-.5.4-.8.5-.7.2-1 .3c-.3 0-.7.1-1.1.2zm-11.3-9.9c-.1 0-.2.1-.3.3-.6.9-.5 2.7-.2 3.3.6 1.1 2.3 1.7 3.8 2.2.3.1.7.2 1 .4 1.4.5 4.6 1.8 6.4 1.5h.3c-.2-.1-.4-.2-.6-.3-.3-.1-.6-.3-.9-.4-1-.5-2-1.1-3-1.7-.6-.3-1.1-.7-1.7-1-1-.6-2.1-1.2-3-2.3-.2-.3-.4-.6-.6-.9-.4-.7-.7-1.1-1.1-1.1z"
      fill="#a8b2b6" />
    <path
      d="m158.8 169.5c-.4.1-.8 0-1.2 0-.5 0-1.1 0-1.6.1-.4-.7-1-1.1-1.7-1.3-.5-.1-1.1-.1-1.6 0-.2 0-.3 0-.7.1-.9 0-2.2 0-2.9 1.4-.1.2-.1.3-.2.5-.4-.1-.8-.2-1.2-.2-.2-.4-.4-.8-.8-1.1-.8-.8-1.9-1.2-2.9-1.1-1 0-2.4.1-3.3 1-.2.2-.4.5-.6.9-.4 0-.8 0-1.1 0-.2-.7-.6-1.3-1.3-1.6-1.1-.5-3-.4-4-.1l-.4.1c-.8.3-2 .6-2.3 2.1v.1c-.2 0-.4-.1-.6-.1-.2-.9-.8-1.7-1.4-2-1.2-.6-3.4-.5-4.6-.2-.2 0-.3.1-.4.2-.3.3-.4.5-.6.8-.3 0-.5-.1-.8-.1-.1 0-.1 0-.2-.1 0-.6-.1-1.1-.4-1.7-.4-.6-1-1.1-1.7-1.5-2.6.2-5.3.1-7.9-.1-.1 0-.2 0-.3 0 0 .3.2.6.4.7.7.4 1.5.6 2.2.9.1 0 .2.1.3.1-.4 1.2-.2 2.4.6 3.1.7.6 3.1 1.2 3.8 1.2.4 0 .7 0 .9-.1.4-.1.7-.3 1.1-.7l.2-.2s.1-.1.1-.1c.3 0 .5.1.7.1s.4.1.6.1v.6c.1.9.5 1.7 1.2 2.1.8.5 2.8.7 4.3.4.6-.1 1.1-.3 1.4-.7.3-.3.6-.8.6-1.3.2 0 .4 0 .6.1.2.8.5 1.4 1.2 1.9.9.6 2.5.6 3.9.3.3-.1.6-.2.9-.3 1.1-.4 1.8-1 2-1.7.1-.2.1-.5.2-.8h.6v.1c0 .7.3 1.3.7 1.7.6.5 1.7.7 2.9.8.3 0 .5 0 .6.1.5.1 1.1.2 1.8 0 .4-.1.8-.2 1.2-.6.6-.5.9-1.1 1-1.7.3.1.5.1.8.2 0 .4.1.7.3 1 .4.7 1.1 1.1 2 1.2 1.1.1 2.4.2 3.4 0 .6-.1 1.2-.4 1.6-.8.3-.4.5-1.2.5-2h1.2 1.5.1c.4-.1.7-.5.7-.9-.5-.6-.9-.9-1.4-.9zm-38.9-1.4c-.4-.3-.9-.2-1.2.2s-.2 1 .2 1.2c.2.1.3.2.5.3h-.1c-.6 0-2.4-.6-2.7-.8-.3-.3-.3-.7-.1-1.1.2.1.3.1.5.1s.5-.2.6-.5c.1-.1.1-.3.1-.4.8-.3 2.3.2 2.8 1.1.1.1.1.2.1.3-.3-.2-.5-.3-.7-.4zm8.3 2.1c-.5.1-.7.6-.6 1.1.1.4.5.6.9.6-.5.4-3 .4-3.5 0-.3-.2-.4-.5-.4-.8h.1c.3-.1.5-.3.6-.5.1-.3 0-.7-.2-1 1.2-.2 2.5-.2 3 .1.1 0 .2.2.4.5-.1 0-.2 0-.3 0zm8.7 1.4h.3c-.1.2-.4.4-.9.6-1.1.4-2.6.4-3.1.1.3-.1.5-.3.6-.6.1-.5-.2-.9-.7-1.1l-.4-.1v-.1c.1-.4.3-.5 1.1-.7l.4-.1c.1 0 .2-.1.3-.1.7-.2 1.9-.1 2.4.1.1 0 .1.1.2.2-.2 0-.5.1-.6.1-.5.1-.7.6-.6 1.1s.6.8 1 .6zm8.8.6c-.3.3-.7.3-1.5.1-.2 0-.5-.1-.8-.1-.5-.1-1.7-.2-1.9-.4 0 0-.1-.2-.1-.4v-.1c.2-.1.4-.3.4-.5.1-.2 0-.4-.1-.6 0-.1.1-.2.1-.2.2-.2.5-.3.8-.4.4-.1.9-.1 1.4-.1.4 0 .8.1 1.2.4-.4.1-.6.4-.7.8 0 .5.4.9.8.9.2 0 .5 0 .7.1 0 .1-.1.3-.3.5zm8.8 0c-.1.1-.6.5-3.5.2-.3 0-.5-.2-.5-.2.3-.1.5-.3.6-.6.1-.4-.1-.8-.5-1v-.1c.1-.2.2-.3.5-.3.2 0 .5-.1.9-.1h.2.6c.4 0 .7-.1 1 0-.4.1-.7.4-.7.9s.4.8.9.8c.2 0 .4-.1.6-.1 0 .2-.1.4-.1.5z"
      fill="#f2c53f" />
    <path clip-rule="evenodd"
      d="m185.8 121.7c-1.3 16.1-13.3 29.8-27 35.2-1.9.7-3.8 1.7-5.7 2.2-9.5 2.6-11.3 2.8-21.9 5-3.7.8-7.3 1.3-11 1.5-2.6.2-5.3.1-7.9-.1-.1 0-.2 0-.3 0-4.9-.6-9-4.6-13-7.4-3.2-2.3-5.6-5.5-8.5-8.1-6-5.3-9-11.8-10.7-19.5-2-9.5-3.1-16.5-.3-25.9 1.7-5.8 3.3-11.9 6.5-17.1 5.7-9.4 15.5-14.2 25.8-16.5 5.5-1.2 10.3-1.6 15.7-1.4 8.9.4 18.5 2.5 25.1 8 2.9 2.5 6.1 5.5 8.1 8.7.6 1 1.5 2.2 2.1 3.5l.4-.2c4.4.6 8.1 1.5 11.5 4.5 3 2.7 5.6 5.8 7.5 9.3 3.1 5.6 4.2 12.1 3.6 18.3z"
      fill="#fff" fill-rule="evenodd" />
    <path clip-rule="evenodd"
      d="m135.4 118c3.9 7.8.9 17.2-6.8 21-7.6 3.8-17 .6-20.9-7.2s-.9-17.2 6.8-21c7.6-3.8 17-.6 20.9 7.2z" fill="#f2bab7"
      fill-rule="evenodd" />
    <path clip-rule="evenodd"
      d="m177.9 95.8c-2-2.1-11.2-8.1-13.1-3.2-2.9 7.4 5.8 15.8 11.4 19.4 2.2 1.4 5.5 2.6 8 .6 1.4-1.2.4-4.4.1-5.5-1.3-4.2-3.4-8.1-6.4-11.3z"
      fill="#f2bab7" fill-rule="evenodd" />
    <path
      d="m166.8 79c-1.5.3-3.2 1.1-4.6 1.7-4.1 1.8-10.9 2.9-11.9 8.2-.6 3.1 1.5 5.9 3.6 8 1.8 1.7 5 4.5 7.8 4.1 5.1-.7 10.3-2.8 10.9-8.4.4-4 .2-14.7-5.8-13.6z"
      fill="#112636" />
    <path
      d="m167.1 81.4h.1c.7-.1 1 0 1.3.3 1.6 1.5 2.2 6.7 1.8 10.8-.2 2-1.2 4.7-7.2 6-.6.1-1.1.2-1.7.3-1.2.2-3.2-1-5.8-3.5-1.6-1.5-3.3-3.6-2.9-5.8.5-2.7 3.5-3.9 7.6-5.4 1-.4 2-.7 2.9-1.1l.4-.2c1.1-.6 2.4-1.2 3.5-1.4zm-.5-2.3c-1.4.3-3.1 1.1-4.4 1.6-4.1 1.8-10.9 2.9-11.9 8.2-.6 3.1 1.5 5.9 3.6 8 1.8 1.7 5 4.5 7.8 4.1.6-.1 1.2-.2 1.9-.3 4.4-1 8.5-3.1 9-8 .4-4 .2-14.7-5.8-13.6-.1-.1-.1 0-.2 0z"
      fill="#1e3a4c" />
    <path
      d="m138.9 93.2c-.4-.3-.8-.5-1.3-.6-1.6-.5-3.3-.1-4.9.3-3.1.7-6.1 1.8-9 3-2.6 1.1-5.2 2.4-7.2 4.4-1.1 1.1-1.3 2.2-1.5 3.6-.1.5-.3 1-.4 1.5.8 1 3 4 3.3 4.4 1.6 1.8 3.3 3 5.3 4.2 3.4 2 6.3 3 10.1 1.3 3-1.4 6.9-2.8 8.5-6 2-4.1 1-13.4-2.9-16.1z"
      fill="#112636" />
    <path
      d="m133.9 94.9c1-.2 2.2-.4 3.1-.2l.6.3c2.8 1.9 3.7 9.9 2.1 13.1-1.1 2.2-4 3.5-6.6 4.6l-.7.3c-.5.2-1 .4-1.5.5-1.9.4-3.6-.1-6.4-1.7-2.1-1.3-3.5-2.3-4.7-3.7-.2-.2-.8-1-1.4-1.9-.4-.5-.7-1-1-1.4.1-.3.1-.5.2-.8.2-1.3.3-1.7.8-2.2 1.5-1.5 3.6-2.7 6.5-3.9 3.1-1.3 5.9-2.2 8.6-2.9 0 0 .2 0 .4-.1zm-.5-2.3c-.2 0-.4.1-.6.2-3.1.7-6.1 1.8-9 3-2.6 1.1-5.2 2.4-7.2 4.4-1.1 1.1-1.3 2.2-1.5 3.6-.1.5-.3 1-.4 1.5.8 1 3 4 3.3 4.4 1.6 1.8 3.3 3 5.3 4.2 2.8 1.6 5.2 2.6 8.1 2 .6-.1 1.3-.3 2-.7 3-1.4 6.9-2.8 8.5-6 2-4 1-13.4-2.9-16.1-.4-.3-.8-.5-1.3-.6-1.4-.4-2.9-.2-4.3.1z"
      fill="#1e3a4c" />
    <path
      d="m170 75.1c-3.1-.3-6.4.9-9.4 1.8-3.7 1-9.5 3.1-12.3 5.8-2.3 2.2.1 5.3-3.5 6.5-1.9.7-3.5 1-5.4.4-1.4-.5-2.8-1.2-4.4-1.3-1.7 0-3.4.6-5 1-3.7.9-7.2 2.2-10.6 3.8-2.6 1.2-5.2 2.6-7.6 4.2-2.9 1.8-6.1 5.9-1.7 8.5 1.2.7 3.1 1.2 4.3.1 1.4-1.2.6-3.5 1.7-4.9 1.9-2.4 4.8-3.6 7.6-4.7 3.1-1.3 6.2-3 9.7-3.4 1.8-.2 3.6 0 5.2.7 2 .8 3.1 1.9 5 .6 1.4-1 2.6-1.3 4.2-1.7 1.7-.4 2-.9 2.3-2.4.3-1.8.9-3.2 2.3-4.6 2.4-2.5 6.8-3.4 9.9-4.7 1.4-.6 3.1-1.4 4.6-1.7 1.3-.2 1.9.2 3.2.5.5.1 1.1.3 1.6.4 2.4-1.1.8-4.6-1.7-4.9z"
      fill="#3c2d15" />
    <path
      d="m166.1 76.6c1.5-.3 2.7-.4 3.9-.3.9.1 1.6.9 1.8 1.7.1.4 0 .6-.2.7-.4-.1-.8-.2-1.2-.3-.3-.1-.6-.2-.9-.2-.8-.2-1.6-.5-2.8-.3l-.2.1c-1.4.3-2.9.9-4.2 1.5l-.4.2c-.8.4-1.8.7-2.8 1.1-2.6.9-5.6 2-7.5 4-1.4 1.5-2.2 3-2.6 5.2-.2 1-.2 1.2-1.4 1.4h-.1c-1.7.4-3 .7-4.5 1.8-.3.2-.6.3-.8.4-.5.1-1-.1-1.9-.6-.4-.2-.7-.4-1.2-.5-1.8-.7-3.8-1-5.8-.7-.5.1-1 .1-1.4.2-2.2.5-4.2 1.4-6.2 2.2-.8.3-1.5.7-2.3 1-2.6 1.1-5.9 2.4-8 5.1-.7.9-.9 2-1 2.9s-.2 1.5-.6 1.8c-.2.1-.3.2-.6.3-.6.1-1.5-.1-2.3-.5-1.5-.9-1.6-1.8-1.6-2.1 0-1.5 1.6-3.4 3.3-4.4 2.5-1.6 5-2.9 7.5-4.1 3.5-1.6 7-2.9 10.4-3.7.4-.1.8-.2 1.1-.3.5-.1 1.1-.3 1.6-.4.8-.2 1.4-.2 1.9-.2.9 0 1.8.4 2.8.8.4.2.8.3 1.2.4 1.3.5 2.7.5 4.2.2.6-.1 1.2-.3 2-.6 2.8-1 2.9-3 3.1-4.4.1-1.1.2-1.8.9-2.4 3-2.9 9.8-5 11.8-5.5.5-.1 1.1-.3 1.7-.5 1-.4 2.1-.8 3.3-1zm-.3-1.2c-1.7.4-3.5 1-5.1 1.4-3.7 1-9.5 3.1-12.3 5.8-2.3 2.2.1 5.3-3.5 6.5-.6.2-1.2.4-1.8.6-1.2.3-2.3.3-3.6-.2-1.4-.5-2.8-1.2-4.4-1.3-.7 0-1.5.1-2.2.3-.9.2-1.9.5-2.8.7-3.7.9-7.2 2.2-10.6 3.8-2.6 1.2-5.2 2.6-7.6 4.2-2.9 1.8-6.1 5.9-1.7 8.5.9.5 2.1.9 3.2.7.4-.1.8-.3 1.1-.5 1.4-1.2.6-3.5 1.7-4.9 1.9-2.4 4.8-3.6 7.6-4.7 2.7-1.1 5.4-2.5 8.3-3.2.4-.1.9-.2 1.3-.2 1.8-.2 3.6 0 5.2.7 1.5.6 2.5 1.4 3.7 1.1.4-.1.8-.3 1.2-.6 1.4-1 2.6-1.3 4.2-1.7 1.7-.4 2-.9 2.3-2.4.3-1.8.9-3.2 2.3-4.6 2.4-2.5 6.8-3.4 9.9-4.7 1.3-.6 2.9-1.3 4.4-1.6h.2c1.3-.2 1.9.2 3.2.5.5.1 1.1.3 1.6.4 2.4-1 .9-4.6-1.6-4.8-1.3-.2-2.8-.1-4.2.2z"
      fill="#9f7e35" />
    <path
      d="m166.5 86.6v2.3c.1 2.3.2 4.6-1.2 6.2-.2.2-.3.3-.4.3s-.1 0-.2-.1c-.4-.5-.3-2.5-.2-4 .2-1.9.3-3.6-.3-4.2-.2-.2-.5-.2-.8-.2-.2 0-.3.1-.5.1-.3.1-.6.2-.7.1-.4-.3-.5-.9-.3-1.7 0-.1 0-.3.1-.4.1-.5.2-1.1.5-1.4l.1-.1c.3-.3 1.6-.9 1.9-.7.1.2 0 .4-.1.8-.1.3-.2.6-.2 1 0 .3.2.6.4.7.3.2.6.1.9 0 .1-.1.3-.1.3-.1.2 0 .3 0 .4.1.2 0 .4.3.3 1.3z"
      fill="#6f95b0" />
    <path
      d="m166.7 84.7c-.1-.1-.4-.3-.8-.2-.1 0-.3.1-.5.1-.1.1-.4.1-.4.1s0 0-.1-.3c0-.2.1-.4.2-.7.2-.4.3-.8.1-1.3-.1-.1-.2-.3-.5-.3-.7-.1-2 .6-2.4.9l-.1.1c-.4.5-.5 1.1-.6 1.7 0 .1-.1.3-.1.4-.1.7-.2 1.6.5 2.3.4.3.9.2 1.3 0 .3-.1.5-.2.6-.1.4.4.2 2.2.1 3.7-.2 1.9-.3 3.8.3 4.5.2.2.4.3.6.3h.2c.3-.1.5-.3.7-.5 1.5-1.8 1.4-4.4 1.3-6.6 0-.8-.1-1.5 0-2.2.1-.6 0-1.5-.4-1.9zm-1.7 10.7c-.1 0-.1 0-.2-.1-.4-.5-.3-2.5-.2-4 .2-1.9.3-3.6-.3-4.2-.2-.2-.5-.2-.8-.2-.2 0-.3.1-.5.1-.3.1-.6.2-.7.1-.4-.3-.5-.9-.3-1.7 0-.1 0-.3.1-.4.1-.5.2-1.1.5-1.4l.1-.1c.3-.3 1.6-.9 1.9-.7.1.2 0 .4-.1.8-.1.3-.2.6-.2 1 0 .3.2.6.4.7.3.2.6.1.9 0 .1-.1.3-.1.3-.1.2 0 .3 0 .4.1s.3.5.3 1.4v2.3c.1 2.3.2 4.6-1.2 6.2-.2.1-.3.2-.4.2z"
      fill="#1e3a4c" />
    <path
      d="m135.8 100v2.5c.1 2.5.2 5-1.3 6.8-.2.2-.3.3-.5.3-.1 0-.1 0-.2-.1-.5-.5-.3-2.7-.2-4.4.2-2.1.3-3.9-.3-4.5-.2-.2-.5-.2-.8-.2-.2 0-.3.1-.5.1-.4.1-.6.2-.7.1-.5-.4-.6-.9-.4-1.9 0-.1.1-.3.1-.5.1-.6.2-1.2.6-1.6s0 0 .1-.1c.4-.4 1.9-1 2.1-.8.1.2 0 .6-.2.9-.1.3-.3.7-.2 1.1s.2.6.4.7c.3.2.6.1 1 0 .1-.1.3-.1.4-.1.2 0 .3 0 .4.1s.3.5.2 1.6z"
      fill="#6f95b0" />
    <path
      d="m135.9 98c-.2-.1-.4-.3-.9-.2-.2 0-.3.1-.5.1-.2.1-.4.1-.5.1 0 0-.1-.1-.1-.3s.1-.5.2-.7c.2-.4.3-.9.1-1.3-.1-.1-.2-.3-.5-.3-.8-.1-2.2.6-2.6 1 0 0-.1.1-.1.1-.5.5-.6 1.2-.7 1.8 0 .1 0 .3-.1.5-.2.7-.3 1.8.6 2.4.4.3.9.2 1.3 0 .3-.1.6-.2.7-.1.4.4.3 2.4.1 4.1-.2 2.1-.4 4.1.3 4.8.2.2.4.3.6.3h.2c.3-.1.6-.3.7-.5 1.6-1.9 1.5-4.8 1.4-7.2 0-.9-.1-1.7 0-2.4.4-1.2.2-1.9-.2-2.2zm-1.8 11.6c-.1 0-.1 0-.2-.1-.5-.5-.3-2.7-.2-4.4.2-2.1.3-3.9-.3-4.5-.2-.2-.5-.2-.8-.2-.2 0-.3.1-.5.1-.4.1-.6.2-.7.1-.5-.4-.6-.9-.4-1.9 0-.1.1-.3.1-.5.1-.6.2-1.2.6-1.6s0 0 .1-.1c.4-.4 1.9-1 2.1-.8.1.2 0 .6-.2.9-.1.3-.3.7-.2 1.1s.2.6.4.7c.3.2.6.1 1 0 .1-.1.3-.1.4-.1.2 0 .3 0 .4.1.2.1.4.5.3 1.5v2.5c.1 2.5.2 5-1.3 6.8-.3.3-.4.4-.6.4z"
      fill="#1e3a4c" />
    <path
      d="m129.9 103.2c-1 .1-1.5.6-1.8 1.5-.3 1.1.1 2.5.8 3.1.3.2.6.3.9.2.2 0 .3-.1.5-.2.7-.5 1-2 .8-3-.1-.9-.5-1.4-1.2-1.6zm-.7 4.1c-.5-.4-.8-1.6-.6-2.4.1-.4.4-.9 1-1h.2c.5.1.7.7.8 1.1.2 1-.2 2.1-.6 2.4-.2.1-.5.1-.8-.1z"
      fill="#1e3a4c" />
    <path d="m130.6 104.9c.2 1-.2 2.1-.6 2.4-.3.2-.5.2-.8 0-.5-.4-.8-1.6-.6-2.4.1-.4.4-.9 1-1h.2c.5 0 .7.6.8 1z"
      fill="#6f95b0" />
    <path
      d="m171.3 154.3c-.5-.7-1.3-1-2.2-.9-.1-.4-.1-.8-.2-1.1-.1-.5-.6-.8-1-.7-.5.1-.8.6-.7 1 .1.5.2 1.2.3 1.8-.1.1-.2.1-.2.2-.9 1.3-1.2 3.5-.2 4.7l.2.2c-.1.5-.2.9-.3 1.4-.3.1-.5.3-.8.6-.9.8-1.5 2-1.8 3.3-.1.7 0 1.4.4 1.9-.3.5-.5.9-.9 1.3-.3.3-.3.9 0 1.2.2.2.5.3.8.2.2 0 .3-.1.4-.2.5-.5.8-1 1.1-1.6.2.1.4.1.7.1.2 0 .4 0 .6-.1 1.1-.2 1.6-1.1 2-1.7.8-1.3 1.1-2.3 1-3-.2-.7-.7-1.3-1.8-1.8.1-.3.1-.6.2-.9h.5.2c.8-.2 1.5-.8 1.9-1.6.3-.9.7-3.1-.2-4.3zm-2.6 9.2c0 .1-.1.7-.7 1.7-.2.3-.4.6-.5.7.1-.3 0-.6-.2-.8-.3-.3-.8-.4-1.1-.1.1-.4.3-.8.5-1.2.1.4.3.7.7.7h.3c.4-.1.6-.4.7-.8v-.3c0-.1 0-.1 0-.2.1.1.2.2.3.3zm1.1-5.5c-.1.2-.2.3-.3.4.1-.4-.1-.8-.5-1-.3-.1-.5-.1-.8 0 0-.2 0-.4 0-.6.2.1.4.1.6.1.5-.1.8-.6.7-1 0-.2-.1-.5-.1-.7.4 0 .5.1.6.2.3.4.1 1.8-.2 2.6z"
      fill="#f2c53f" />
    <path
      d="m83.6 81.2c-.2.1-.5 0-.7-.1-.8-.4-2-.6-3.1-.6-.6 0-1.2-.5-1.2-1.1s.5-1.2 1.1-1.2c1.5 0 2.9.2 4.1.8.6.3.8 1 .6 1.6-.2.3-.5.5-.8.6z"
      fill="#494c4e" />
    <path
      d="m148 166.3c-.4.1-.9-.1-1.1-.4-.4-.5-.3-1.2.2-1.6 1.2-1 2.9-1.4 4.5-1.8 1.7-.4 3.6-.9 4.5-1.9.4-.5 1.2-.5 1.7-.1s.5 1.2.1 1.7c-1.4 1.5-3.5 2.1-5.6 2.6-1.5.4-2.9.7-3.6 1.4-.3 0-.5.1-.7.1z"
      fill="#494c4e" />
    <path
      d="m114 258.1c-.5.1-1-.1-1.2-.5s-.5-.8-.8-1.3c-2-3-4.7-7-3.2-10.2.3-.6 1-.8 1.6-.6.6.3.8 1 .6 1.6-.9 2 1.5 5.5 3 7.9.3.5.6.9.9 1.3.3.5.2 1.3-.4 1.6-.2.1-.4.2-.5.2z"
      fill="#494c4e" />
    <path
      d="m130.8 254.7c-.3.1-.6 0-.9-.2-.6-.3-.7-1.1-.4-1.6.7-1.1 1-3 .8-4.9-.1-.6.4-1.2 1.1-1.3.6-.1 1.2.4 1.3 1.1.2 1.9 0 4.6-1.1 6.4-.2.3-.5.5-.8.5z"
      fill="#494c4e" />
    <path
      d="m157.7 247.8c-.3.1-.6 0-.9-.2-.5-.3-.7-1.1-.3-1.6.2-.3.4-.6.7-1 .6-.8 1.2-1.6 1.3-2.4.1-.6.8-1 1.4-.9s1 .8.9 1.4c-.3 1.3-1.1 2.4-1.7 3.3-.2.3-.4.6-.6.9s-.5.5-.8.5z"
      fill="#494c4e" />
    <path
      d="m149.3 196.6c-.7.1-1.3-.3-1.4-.9-.3-1.7-1.4-3.6-2.4-5.4-.7-1.2-1.4-2.4-1.8-3.6-1.2-2.8-1.8-5.5-2.4-8.4l-.1-.3c-.1-.6.3-1.3.9-1.4.6-.1 1.3.3 1.4.9l.1.3c.6 2.8 1.2 5.4 2.3 8 .4 1 1.1 2.1 1.7 3.3 1.1 2 2.3 4.1 2.7 6.1 0 .6-.4 1.2-1 1.4z"
      fill="#d1dce1" />
    <path
      d="m116.3 283.8 1.3 6.1c.3 1.3-.5 2.5-1.8 2.8s-2.5-.5-2.8-1.8l-1.3-6.1c-.2-.9.1-1.7.8-2.2.3-.3.6-.4 1-.5s.9-.1 1.3.1c.7.2 1.3.8 1.5 1.6z"
      fill="#ef992d" />
    <path
      d="m190.2 211.8c-.5-1.4-1.1-2.8-1.2-3.9-.5-3.8-1.7-7.9-3.6-12.5-.5-1.1-1-2.2-2-2.6s-2.1 0-3.2.5c-.9.4-1.8.9-2.7 1.5-.8.4-1.5.9-2.3 1.2-7.3 3.6-15.6 5.3-23.6 7-1 .2-1.9.4-2.9.6-.3.1-.7.1-1 .2-2.6.6-5.6.8-8.7.6-1.4-.1-4.1 0-6.1.7-.4-.3-1.1-.4-1.5 0-2.9 2.5-3 6.7-3.1 10.3 0 .9-.1 1.9-.1 2.7-.1 1.1 0 2.2.1 3.2 0 .5.1.9.1 1.4.1 1.5.4 3 .6 4.5.3 1.3.5 2.5.6 3.8 0 .4-.1 1.1-.2 1.8-.2 1.1-.3 2.4-.1 3.5h-.1c-.2.4-.1.9.1 1.3.1.2.4.3.8.5.3.3.7.4 1.1.3.1 0 .1-.1.1-.1 1.7.2 4.1 0 5.8-.2 1.4-.2 2.8-.2 4.2-.3 2.3-.2 4.7-.3 7.1-.7 3.9-.6 7.8-1.3 11.7-2.1 6.5-1.4 13.1-3.3 19.2-6.4l1.4-.7c3.3-1.6 7-3.4 9.4-6.2 2.9-2.8 1.4-6.5.1-9.9zm-59.4 11.1c0-.5-.1-1-.1-1.5-.1-1-.1-1.9-.1-2.8.1-.9.1-1.8.2-2.8.1-1.7.1-3.5.5-5.2 0 .1.1.2.1.2 1.5 6.5 1.6 12.5.4 18.2-.1-.7-.3-1.4-.4-2-.3-1.4-.6-2.7-.6-4.1zm57.7-2.4c-2.2 2.5-5.5 4.1-8.7 5.6l-1.4.7c-9.5 4.7-20.2 6.7-30.3 8.3-2.3.4-4.5.5-6.9.7-1.4.1-2.9.2-4.3.4-.7.1-3.4.2-5 .2 3.3-8 3.9-16.5 1.7-26-.1-.3-.2-.6-.3-1s-.4-1.1-.4-1.2c.4-.8 3.1-1.3 6.1-1.1 3.3.2 6.5-.1 9.3-.7h.1c1.3-.3 2.5-.5 3.8-.8 8.2-1.7 16.6-3.5 24.1-7.2.8-.4 1.6-.9 2.4-1.3.8-.5 1.7-1 2.5-1.4 1-.5 1.3-.5 1.3-.5s.3.2.7 1.3c1.8 4.3 3 8.3 3.4 11.9.2 1.4.8 3 1.4 4.4 1.2 2.8 2.3 5.6.5 7.7z"
      fill="#494c4e" />
    <path
      d="m200.4 138.7c-3.6.8-7.8.9-10.5-1-.5-.4-.6-1.1-.3-1.6.4-.5 1.1-.6 1.6-.3 3 2.1 9.8.8 13.4-.9 1.1-.5 3.1-2 2.5-3.4-.2-.6 0-1.3.6-1.5s1.3 0 1.5.6c1.1 2.7-1.1 5.1-3.7 6.4-1 .6-2.9 1.2-5.1 1.7z"
      fill="#f2c53f" />
    <path d="m40.9 156.2c-2.2 1-3.2 3.6-2.6 6.5.7 3.6 6.2 4.8 8.7 2.3 2.8-2.8 1.4-8.6-2.8-9.2-1.3-.2-2.4 0-3.3.4z"
      fill="#dceff8" />
    <path
      d="m44.9 167.3c-1.1.2-2.4.2-3.6-.2-2.2-.7-3.8-2.3-4.2-4.3-.7-3.5.5-6.5 3.2-7.8 1.1-.5 2.5-.7 3.9-.5 2.3.3 4.1 1.9 4.9 4.3.8 2.5.3 5.2-1.4 6.9-.7.9-1.7 1.4-2.8 1.6zm-3.5-10c-1.7.8-2.4 2.8-1.9 5.2.2 1.2 1.2 2.1 2.6 2.5 1.6.5 3.2.2 4.1-.8 1.1-1 1.4-2.9.8-4.5-.2-.7-1-2.4-3-2.7-1-.2-1.9-.1-2.6.3z"
      fill="#a8b2b6" />
    <path
      d="m44.5 162.2c-.2 0-.3 0-.5 0-.1 0-.3 0-.5 0-.5 0-1.4.1-1.9-.6-.2-.3-.4-.6.3-2.9.2-.5.7-.7 1.1-.6.5.2.7.7.6 1.1s-.3.8-.3 1.2h.1c.4 0 .8 0 1.2.1.5.2.7.7.5 1.1-.1.3-.3.5-.6.6z"
      fill="#676c6f" />
    <path
      d="m45.3 168.3c-.7.2-1.4.1-2-.2-.4-.2-.6-.7-.4-1.2.2-.4.7-.6 1.2-.4.6.3 1.4-.1 1.9-.3 1.4-.8 2.4-2.2 2.5-3.1.1-.5.5-.8 1-.8.5.1.8.5.8 1-.2 1.5-1.6 3.4-3.4 4.4-.6.3-1.1.5-1.6.6z"
      fill="#676c6f" />
    <path
      d="m63.3 149.2c-.4.1-.8 0-1.1-.3-.9-.8-1.9-1.3-3.1-1.8-.5-.2-1.1-.5-1.6-.8-.6-.3-.8-1-.5-1.6s1-.8 1.6-.5c.5.3 1 .5 1.5.7 1.3.6 2.6 1.1 3.8 2.2.5.4.5 1.2 0 1.7-.2.2-.4.3-.6.4z" />
    <path clip-rule="evenodd"
      d="m67.2 150c-.1.2-.5.7-.7.9l-.1.1c-.5.6-1.1 1.2-1.3 1.9-.1.3-.2.7-.2 1-.2 1.2-.2 1.2-.9 1.1-.4 0-.7-.1-.7-1.4 0-1.5.4-2.4 1.4-3.3.2-.2.7-.4 1.1-.5s.7-.1 1 0c.2.1.3.2.4.2z"
      fill="#f6e298" fill-rule="evenodd" />
    <path
      d="m67.6 147.6c-1.6-.5-3.5.1-4.4 1-1.5 1.4-2.2 2.9-2.2 5.1 0 2.8 1.5 3.6 2.8 3.7.5.1.9 0 1.2 0 1.7-.4 2-2 2.2-3 .1-.3.1-.5.2-.8.1-.2.5-.7.8-1h.1c.7-.8 1.5-1.7 1.3-2.7-.3-1.2-1-2-2-2.3zm-1.2 3.4c-.5.6-1.1 1.2-1.3 1.9-.1.3-.2.7-.2 1-.2 1.2-.2 1.2-.9 1.1-.4 0-.7-.1-.7-1.4 0-1.5.4-2.4 1.4-3.3.2-.2.7-.4 1.1-.5s.7-.1 1 0c.2.1.3.1.3.1 0 .3-.4.8-.7 1.1z"
      fill="#f2c53f" />
    <path
      d="m214.1 135.8c-.3-.7-.7-1.3-1.2-1.9.5-1.5.4-3.2-.2-4.7-.4-1.1-1.2-1.9-2.2-2.4-.4-1.7-.9-3.3-1.6-4.8-2.5-5.7-8.7-11.3-15.6-11-.8 0-1.6.1-2.4.3-.7.1-1.3.3-2 .6-.1-.7-.3-1.4-.4-2.1-.1-1.6-.6-3-.8-3.8-1.5-4.9-4-9.3-7.2-12.6-.9-1-2.5-2.2-4.2-3.2 0-2.4-.1-5.6-1.1-8.5 1-1.2 1.4-2.7 1.2-4.4-.4-3-3-5.3-5.9-5.6-1.6-.2-3.3 0-5.3.4-1.3.3-2.6.7-3.8 1-.5.2-1.1.3-1.6.5-.7.2-1.5.4-2.3.7-3.1-2.6-6.4-4.6-9.7-6.1-5.4-2.5-10.8-3.7-16-4.9-2.4-.6-4.9-1.1-7.3-1.8-.9-.2-1.8-.5-2.6-.8-4.4-1.4-8.9-2.8-14.7-2.1-.6.1-1.2.2-1.8.3-3.1.7-5.5 2.1-7.7 3.3-1.1.6-2.1 1.2-3.1 1.6-1.5.6-3 1.1-4.7 1.7-2.7.9-5.5 1.8-8.3 3.3-10.2 5.3-21.2 12-25.7 21.4l-.1.1c-5.1 11-10.4 22.3-12.4 34.8-1.1 7-1 13.7.4 19.9.1.4.2.7.3 1.1-1.2 1.7-2.1 3.6-2.8 5.4-.1 0-.2 0-.3 0-.7.1-1.3.4-1.9.7 0 0-.1 0-.1.1-4.1 2-6.1 6.6-5 11.6.2.8.4 1.6.9 2.3-1.4 3.9.4 7.8 1.3 9.9.2.5.4.9.7 1.2-.2.5-.3 1.2-.3 1.8-.3 7.7 5.6 14.2 8.1 16.6.6.6 1.1 1.2 1.7 2 1.5 1.9 3.3 4.2 6.8 5.7 1.2.5 2.4 1.1 3.6 1.8 3.6 1.9 7.5 4 12.4 4.1.8 12.4 2.4 26.9 11.5 38.8 5 6.6 11.5 11.4 19.3 14.5-1.6 3.7-.5 7.5 2.9 9.5 1.7 1 3.4 1.5 5.1 1.3.2 2.7.5 5.6 1.1 8.7-.5 1.1-.7 2.4-.4 3.7l1.3 6.1c.7 3.1 3.7 5.1 6.9 4.4 3.1-.7 5.1-3.7 4.4-6.8l-1.3-6.1c-.2-1.1-.8-2.2-1.7-2.9-.7-4-1-7.4-1-10.7 0-.8.1-1.9.2-3 0-.1 0-.2 0-.3 6.4.4 13.2 0 20.4-1.2 1.3-.2 2.6-.5 3.8-.7 1.1-.2 2.2-.5 3.4-.8l.2-.1 4.5-1.2c2.4-.6 4.9-1.3 7.2-2.1 2.9-1 5.8-2.2 8.6-3.5.7 2.2 1.9 4.3 3.8 5.6 2.6 1.8 4.9 1.8 6.4 1.5 1-.2 1.9-.7 2.7-1.2 2.7-2.1 3.6-6.1 2.2-9.9-.4-1.1-1.1-2.3-1.9-3.6 8.6-6.3 15-13.8 18.6-22.1 5.4-12.5 4.1-30 .4-41.8-.9-2.9-2-5.7-3.2-8.3h.6c.7-.1 1.4-.2 2.1-.3 3.8-.8 7.1-2.8 9.3-5.8 1.3-1.7 2.1-3.4 2.8-4.9.5-1.1.9-2 1.4-2.7 3-4.2 7-12.8 4.1-19.8.3-3.2.2-5.8-.8-7.8zm-6.6 25.1c-.7.9-1.2 2-1.7 3.2-.7 1.4-1.3 2.9-2.4 4.3-1.8 2.3-4.3 3.9-7.3 4.5-.6.1-1.1.2-1.7.3-2 .2-3.9.2-5.8.1 2 4.1 3.9 8.4 5.3 12.8 3.5 11.2 4.8 27.8-.3 39.4-3.8 8.8-11 16.6-20.5 22.8 1.7 1.8 3.2 4 3.8 5.5.9 2.3.4 4.7-1 5.9-.3.2-.7.5-1.3.6-.9.2-2.1.1-3.6-1-2.1-1.4-2.8-4.7-3.3-7.8-3.8 2-7.9 3.8-12.2 5.3-2.2.7-4.6 1.4-6.9 2l-4.6 1.2h-.2c-1.1.3-2.1.5-3.2.8-1.2.3-2.5.5-3.7.7-8.4 1.4-16.1 1.7-23.1.8 0 1.3-.1 2.6-.2 3.8s-.2 2.3-.2 3.4c0 3.9.5 8 1.4 12.7.7.3 1.3.8 1.4 1.6l1.3 6.1c.3 1.2-.5 2.4-1.7 2.7s-2.4-.5-2.7-1.7l-1.3-6.1c-.2-.8.1-1.6.7-2.2-.9-4.9-1.3-9.1-1.4-13.1 0-1.1.1-2.3.2-3.4-.7 1.5-1.7 2.8-3 3.3-.2.1-.4.1-.6.2-1.1.2-2.2 0-3.3-.7-2-1.2-2.5-3.4-1.1-5.7.5-.9 1.2-1.7 2.1-2.5-9.1-2.6-16.6-7.6-22.2-14.9-9-11.8-10.2-26.3-11-40.6-.4.1-.9.2-1.3.2-5 .6-8.9-1.5-12.8-3.6-1.4-.7-2.6-1.4-3.9-2-2.7-1.1-4.1-2.9-5.5-4.6-.7-.8-1.3-1.6-2.1-2.3-2.2-2.1-7.3-7.6-7-13.8 0-.7.3-1.4.5-2 .1-.2.1-.4.2-.6-.1-.2-.3-.5-.4-.6-.3-.5-.7-1-.9-1.5-.9-2.1-2.5-5.6-.5-8.6 0 0 .1-.1.1-.1-.8-.7-1.3-1.7-1.5-2.7-.7-3.4.5-6.5 3.2-7.7.4-.2.8-.3 1.2-.4.6-.1 1.3-.2 2-.1.1-.2.1-.3.2-.5 1-2.4 2.2-5.4 4.1-7.4-.3-.8-.5-1.7-.7-2.6-1.2-5.8-1.3-12.1-.3-18.6 1.9-12 7.1-23.1 12.1-33.8l.1-.1c3.9-8.5 14.4-14.7 24.1-19.7 2.6-1.4 5.2-2.2 7.8-3.1 1.7-.6 3.3-1.1 4.9-1.8 1.2-.5 2.3-1.1 3.5-1.8 2-1.2 4.1-2.4 6.6-2.9.5-.1.9-.2 1.4-.2 5.2-.5 9.1.7 13.3 2 .9.3 1.8.6 2.7.8 1.8.5 3.5.9 5.3 1.3.7.2 1.5.3 2.2.5 5.1 1.2 10.3 2.4 15.4 4.8 3.6 1.6 7.1 3.9 10.4 6.8.5-.2 1-.3 1.4-.5.9-.3 1.8-.6 2.6-.8 1.7-.5 3.4-1 5.2-1.4 1.4-.3 2.8-.5 4.2-.3 2.5.2 4 3.8 1.6 4.8-.6-.1-1.1-.3-1.6-.4-.4-.1-.7-.2-1-.3 2.7 1.2 3.5 5.6 3.7 9.3.1 1.4 0 2.7-.1 3.7 2.3 1.2 4.4 2.7 5.3 3.6 3 3.2 5.1 7.1 6.3 11.3.2.6.6 2 .7 3.3l.1.3c.6 2.5.9 5 .9 7.6.1-.1.2-.2.3-.4.9-.9 1.9-1.7 3.1-2.3.7-.3 1.5-.6 2.3-.8.6-.1 1.2-.2 1.8-.2 5.3-.2 10.3 4.3 12.3 8.9 1 2.2 1.5 4.5 1.8 6.8.1-.1.3-.3.5-.3 0 0 .1-.1.2-.1.5-.1 1.1.2 1.3.7.7 1.6.1 3.1-1 4.3 1.3.5 2 1.5 2.5 2.4.9 1.9.4 4.4-.3 6.2 3.2 5.1-.6 13.2-3.2 17zm-21.5-25.8c-.3-.1-.7-.3-1-.6-.6-.5-1.2-1.3-1.7-2.1-.5 1.2-1.1 2.4-1.7 3.6s-1.3 2.4-2 3.5v.7c-.1 1.5-.4 3-.7 4.4-.1.4-.2.8-.2 1.2.2.1.4.2.6.3.5.2 1 .5 1.5.8 1.2.6 2.1 1.1 3.2 1.4.3-.4.7-.7.9-.9s.3-.3.4-.4c.3-.4.7-1.4.7-1.9s0-1.1-.1-1.7c-.2-1.8-.6-4.9 2.7-7 .4-.2.7-.4 1.1-.5l.3-.3s-.1 0-.2 0c-1.3-.1-2.6 0-3.8-.5zm-16.2 115.2c.4 2.8 1 6.1 2.5 7.1.4.3 1.2.8 1.9.6.1 0 .3-.1.3-.2.6-.5.9-1.8.3-3.3-.6-1.6-2.2-3.6-3.6-5.1-.4.4-.9.6-1.4.9zm-64.5 13.9c-1.1 1.9 0 2.5.3 2.7.9.5 1.4.5 1.7.5h.2c1.4-.6 2.4-3.4 3-5.5-.8-.1-1.5-.3-2.3-.5-1.2.7-2.3 1.7-2.9 2.8zm-41.4-95.8c.5 1.2.6 2.4.7 3.3.1.6.1 1.3.3 1.7.1.5.7 1.4 1.1 1.7.1.1.2.2.4.3.3.1.7.3 1.1.7.3-.1.6-.3.8-.5-.8-2.2-2.6-4.6-3.9-6.5-.2-.3-.4-.5-.5-.7zm-4.7-3.6c-.4.2-.6.2-.7.3.7 0 1.3 0 2.1.3.7.3 1.3.6 1.7 1-.6-.7-1.2-1.3-1.8-2-.4.1-.9.2-1.3.4zm115.7 89.8c-.6-1.6-2.2-3.6-3.6-5.1-.5.3-1 .6-1.5.8.4 2.8 1 6.1 2.5 7.1.4.3 1.2.8 1.9.6.1 0 .3-.1.3-.2.6-.4.9-1.7.4-3.2zm-66.7 6.7c-1.2.7-2.3 1.8-3 2.9-1.1 1.9 0 2.5.3 2.7.9.5 1.4.5 1.7.5h.2c1.4-.6 2.4-3.4 3-5.5-.7-.2-1.4-.4-2.2-.6zm-43.9-92.3c-.2-.2-.3-.4-.5-.6.5 1.2.6 2.4.7 3.3.1.6.1 1.3.3 1.7.1.5.7 1.4 1.1 1.7.1.1.2.2.4.3.3.1.7.3 1.1.7.3-.1.6-.3.8-.5-.8-2.3-2.5-4.8-3.9-6.6zm-3.8-4.7c-.5.1-.9.3-1.3.5s-.6.2-.7.3c.7 0 1.3 0 2.1.3.7.3 1.3.6 1.7 1-.6-.7-1.2-1.4-1.8-2.1zm129.3-28.5c-1.3-.3-2.6-.2-3.8-.6-.3-.1-.7-.3-1-.6-.6-.5-1.2-1.3-1.7-2.1-.5 1.2-1.1 2.4-1.7 3.6s-1.3 2.4-2 3.5v.7c-.1 1.5-.4 3-.7 4.4-.1.4-.2.8-.2 1.2.2.1.4.2.6.3.5.2 1 .5 1.5.8 1.2.6 2.1 1.1 3.2 1.4.3-.4.7-.7.9-.9s.3-.3.4-.4c.3-.4.7-1.4.7-1.9s0-1.1-.1-1.7c-.2-1.8-.6-4.9 2.7-7 .4-.2.7-.4 1.1-.5l.3-.3c0 .1-.1.1-.2.1z" />
    <path
      d="m189.3 115.5c.2 2.1.2 4.3 0 6.5-.4 4.5-1.5 9-3.3 13.2-.3-.1-.7-.3-1-.6-.6-.5-1.2-1.3-1.7-2.1 1.4-3.4 2.2-7 2.5-10.7.1-1.2.1-2.4.1-3.6.1-.1.2-.2.3-.4 1-.9 2-1.7 3.1-2.3z"
      fill="#0070a8" />
  </g>
  <g clip-path="url(#a)">
    <path clip-rule="evenodd"
      d="m157.6 101.8c.4 1.1-.4 2.3-1.8 2.9-1.4.5-2.9.1-3.3-1s.4-2.3 1.8-2.9c1.5-.5 2.9-.1 3.3 1" fill-rule="evenodd" />
    <path
      d="m167.1 105.8c-.6-.5-1.5-.5-2 .1s-.5 1.5.1 2c.2.3.1 1.4-.5 2.7-.5 1.2-1.3 1.9-2.4 2.1-1.6.3-3.6-.5-5.3-2-.2-.4-.6-.7-1.1-.7-.8-.1-1.4.5-1.5 1.3-.2 2.7-1.6 5.1-4 6.7-2.4 1.7-5.4 2.2-7.9 1.5-1.4-.4-2.3-.9-2.6-1.2.2-.6-.1-1.4-.8-1.7s-1.5 0-1.9.7c-.3.7-.3 1.4 0 2.1.7 1.6 3.1 2.5 4.5 2.9 1.8.5 3.7.5 5.6.1 1.6-.4 3.3-1.1 4.7-2.1 2.3-1.6 3.9-3.8 4.7-6.2 2 1.3 4.2 1.8 6.1 1.4h.1c2-.4 3.5-1.8 4.4-3.8.5-1.3 1.5-4.3-.2-5.9z"
      fill="#221714" />
  </g>
  <g clip-path="url(#a)">
    <path
      d="m211.1 61c-.9-.2-1.9-.3-2.8-.4-1.3-.1-3.4-.4-4-.9-1.5-1.4-2.7-5.5-3.4-7.9l-.2-.7c-.6-2.2-2.7-3.6-4.9-3.4-.2 0-.4 0-.6.1-2 .4-3.5 2.1-3.7 4.1-.1.9-.1 1.9-.2 2.8-.1 2.3-.2 4.9-1 6.3-.8 1.3-3 2.5-5 3.6-.8.4-1.6.9-2.3 1.3-1.9 1.1-2.7 3.4-2 5.5s2.8 3.4 4.9 3.2c1-.1 3.9-.4 7 3.4 1.1 1.4 2.8 4.5 4.3 8.2.8 2 2.8 3.1 5 2.8.1 0 .2 0 .4-.1 1.9-.4 3.4-2 3.6-4 .2-1.7.3-3.3.4-4.7.2-4.8.4-7 6.1-10.8 1.6-1.1 2.4-3 2-4.9-.2-1.7-1.7-3.2-3.6-3.5zm-.2 5.5c-7.3 4.8-7.5 8.5-7.7 13.6-.1 1.4-.1 2.8-.3 4.4-.1.5-.5.9-.9 1h-.1c-.5.1-1.1-.2-1.3-.7-1.7-4.2-3.5-7.4-4.9-9.1-2.9-3.5-6.3-5.1-10.1-4.7-.5 0-1-.3-1.2-.8s0-1.1.5-1.4c.7-.4 1.4-.8 2.2-1.2 2.5-1.4 5.1-2.8 6.4-4.9 1.2-2.1 1.3-5.2 1.5-7.9 0-.9.1-1.8.2-2.7 0-.6.5-1 1.1-1 .6-.1 1.1.3 1.2.8l.2.7c.9 3.1 2.1 7.5 4.3 9.5 1.4 1.3 3.7 1.6 6 1.8.9.1 1.7.2 2.5.4.5.1.8.5.9.9.1.6-.1 1.1-.5 1.3z" />
    <path
      d="m207.2 66.3c-5.8 4.6-6.1 8.8-6.3 13.4-1-2.1-2.2-4.1-3.3-5.5-2.3-2.8-5-4.6-8-5.3 2.3-1.3 4.6-2.8 6-5.1.9-1.6 1.3-3.5 1.5-5.4.8 2.1 1.9 4 3.3 5.4 1.8 1.9 4.4 2.3 6.8 2.5z"
      fill="#ffe89a" />
    <path
      d="m210.5 64.4c-.8-.1-1.6-.2-2.5-.4-2.3-.2-4.6-.5-6-1.8-2.2-2.1-3.4-6.4-4.3-9.5l-.2-.7c-.2-.5-.7-.9-1.2-.8-.6 0-1 .5-1.1 1-.1.9-.1 1.8-.2 2.7-.1 2.7-.3 5.8-1.5 7.9-1.2 2.2-3.9 3.6-6.4 4.9-.8.4-1.5.8-2.2 1.2-.5.3-.7.8-.5 1.4.2.5.7.8 1.2.8 3.8-.4 7.2 1.1 10.1 4.7 1.4 1.7 3.1 4.9 4.9 9.1.2.5.7.8 1.3.7h.1c.5-.1.9-.5.9-1 .2-1.6.3-3.1.3-4.4.2-5.1.4-8.8 7.7-13.6.4-.3.6-.7.5-1.2s-.5-.9-.9-1zm-9.6 15.4c-1-2.1-2.2-4.1-3.3-5.5-2.3-2.8-5-4.6-8-5.3 2.3-1.3 4.6-2.8 6-5.1.9-1.6 1.3-3.5 1.5-5.4.8 2.1 1.9 4 3.3 5.4 1.8 1.7 4.4 2.1 6.8 2.3-5.8 4.8-6.1 8.9-6.3 13.6z"
      fill="#fdcd3a" />
    <path
      d="m232.1 103.7c-.5-.1-1.2-.2-1.8-.3-.4 0-1.1-.1-1.4-.2-.5-.8-1.1-2.8-1.3-3.7l-.1-.5c-.6-2.2-2.7-3.6-4.9-3.4-.2 0-.4 0-.6.1-2 .4-3.5 2.1-3.7 4.1 0 .6-.1 1.2-.1 1.8 0 .9-.1 2.4-.3 2.9-.3.3-1.5 1.1-2.3 1.5-.5.3-1 .6-1.5.8-1.9 1.1-2.7 3.4-2 5.5s2.8 3.4 4.9 3.2c.4 0 1.3-.1 2.5 1.4.2.2 1 1.3 2.3 4.4.8 2 2.8 3.1 5 2.8.1 0 .2 0 .4-.1 1.9-.4 3.4-2 3.6-4 .1-1.1.2-2.1.2-3 .1-2.7.2-3.2 2.8-5 1.6-1.1 2.4-3 2-4.8-.3-1.7-1.8-3.2-3.7-3.5zm-.2 5.6c-4.2 2.7-4.3 4.7-4.4 7.8-.1.8-.1 1.7-.2 2.7-.1.5-.4.9-.9 1h-.1c-.5.1-1.1-.2-1.3-.7-1-2.4-2-4.3-2.8-5.3-1.6-2-3.5-2.8-5.6-2.6-.5.1-1-.3-1.2-.8s0-1.1.5-1.4c.4-.3.9-.5 1.4-.7 1.5-.8 3-1.6 3.6-2.8.7-1.1.8-2.9.8-4.5 0-.6 0-1.1.1-1.6 0-.6.5-1 1.1-1 .5 0 1.1.3 1.2.8l.1.4c.5 1.8 1.2 4.3 2.5 5.5.7.7 2 .8 3.3 1 .5.1 1.1.1 1.5.2.5.1.9.5 1 .9 0 .3-.2.8-.6 1.1z" />
    <path
      d="m228.3 109.1c-2.2 2.1-2.8 4-3 6-.4-.7-.8-1.4-1.2-1.9-1.2-1.4-2.5-2.4-4-3 1.1-.7 2.1-1.5 2.8-2.7.3-.6.6-1.2.7-1.9.4.7.9 1.4 1.5 2 .9 1 2 1.3 3.2 1.5z"
      fill="#ffe89a" />
    <path
      d="m231.5 107.1c-.5-.1-1-.1-1.5-.2-1.2-.1-2.6-.3-3.3-1-1.2-1.2-1.9-3.7-2.5-5.5l-.1-.4c-.1-.5-.7-.9-1.2-.8-.6.1-1 .5-1.1 1s-.1 1.1-.1 1.6c-.1 1.6-.2 3.3-.8 4.5-.7 1.2-2.2 2-3.6 2.8-.5.2-.9.5-1.4.7-.5.3-.7.9-.5 1.4s.7.9 1.2.8c2.1-.2 4 .6 5.6 2.6.8 1 1.8 2.9 2.8 5.3.2.5.7.8 1.3.7h.1c.5-.1.8-.5.9-1 .1-1 .2-1.9.2-2.7.1-3 .2-5 4.4-7.8.4-.3.6-.8.5-1.2-.1-.3-.5-.7-.9-.8zm-6.2 8c-.4-.7-.8-1.4-1.2-1.9-1.2-1.4-2.5-2.4-4-3 1.1-.7 2.1-1.5 2.8-2.7.3-.6.6-1.2.7-1.9.4.7.9 1.4 1.5 2 .9.9 2.1 1.2 3.3 1.4-2.3 2.1-2.9 4.1-3.1 6.1z"
      fill="#fdcd3a" />
    <path
      d="m140.9 23.1c-.5-.1-1.2-.1-1.8-.2-.4 0-1.1-.1-1.4-.2-.5-.7-1.2-2.8-1.4-3.6l-.1-.5c-.7-2.2-2.8-3.5-5-3.2-.2 0-.4.1-.6.1-2 .5-3.4 2.2-3.5 4.2 0 .6-.1 1.2-.1 1.8 0 .9-.1 2.4-.3 2.9-.3.3-1.5 1.1-2.2 1.5-.5.3-1 .6-1.5.9-1.9 1.2-2.6 3.5-1.9 5.6.8 2 2.9 3.3 5 3 .4-.1 1.3-.2 2.6 1.3.2.2 1 1.2 2.5 4.4.9 1.9 2.9 3 5 2.7.1 0 .2 0 .4-.1 1.9-.5 3.3-2.1 3.5-4.1.1-1.1.1-2.1.2-3 0-2.7.1-3.3 2.7-5.1 1.6-1.1 2.3-3 1.9-4.9-.6-1.8-2.1-3.2-4-3.5zm-.1 5.5c-4.1 2.8-4.1 4.8-4.2 7.9 0 .8-.1 1.8-.1 2.7-.1.5-.4.9-.9 1h-.1c-.5.1-1.1-.2-1.3-.7-1.1-2.4-2.2-4.3-3-5.2-1.7-1.9-3.6-2.7-5.7-2.5-.5.1-1-.3-1.3-.8-.2-.5 0-1.1.5-1.4.4-.3.9-.5 1.3-.8 1.4-.8 2.9-1.7 3.6-2.9.6-1.2.7-2.9.7-4.5 0-.6 0-1.1.1-1.7 0-.6.5-1 1-1.1s1.1.3 1.2.8l.1.4c.6 1.8 1.3 4.3 2.6 5.4.7.7 2.1.8 3.3.9.5 0 1.1.1 1.5.2.5.1.9.4 1 .9.3.7.1 1.2-.3 1.4z" />
    <path
      d="m137.2 28.6c-2.2 2.1-2.7 4.1-2.9 6.1-.4-.7-.9-1.4-1.3-1.9-1.2-1.4-2.6-2.4-4-2.9 1.1-.7 2.1-1.6 2.7-2.7.3-.6.5-1.2.7-1.9.4.7.9 1.4 1.5 1.9.9.9 2.1 1.2 3.3 1.4z"
      fill="#ffe89a" />
    <path
      d="m140.3 26.5c-.5-.1-1-.1-1.5-.2-1.3-.1-2.6-.2-3.3-.9-1.3-1.1-2-3.6-2.6-5.4l-.1-.4c-.2-.5-.7-.9-1.2-.8-.6.1-1 .5-1 1.1 0 .5 0 1.1-.1 1.7 0 1.6-.1 3.4-.7 4.5-.6 1.2-2.1 2-3.6 2.9-.5.3-.9.5-1.3.8-.5.3-.7.9-.5 1.4s.7.8 1.3.8c2.1-.3 4 .5 5.7 2.5.8 1 1.9 2.8 3 5.2.2.5.7.8 1.3.7h.1c.5-.1.8-.5.9-1 .1-1 .1-1.9.1-2.7.1-3 .1-5 4.2-7.9.4-.3.6-.8.5-1.2-.4-.6-.7-1-1.2-1.1zm-6 8.2c-.4-.7-.9-1.4-1.3-1.9-1.2-1.4-2.6-2.4-4-2.9 1.1-.7 2.1-1.6 2.7-2.7.3-.6.5-1.2.7-1.9.4.7.9 1.4 1.5 1.9 1 .8 2.1 1.2 3.3 1.3-2.2 2.2-2.7 4.2-2.9 6.2z"
      fill="#fdcd3a" />
    <path
      d="m34.2 125.4c-.7-.1-1.5-.2-2.2-.3-1-.1-2.6-.3-3-.6-1.2-1.1-2.1-4.3-2.6-6.2l-.2-.6c-.5-1.8-2.2-3-4.1-2.8-.2 0-.3 0-.5.1-1.7.4-2.9 1.7-3.1 3.5-.1.7-.1 1.5-.1 2.3-.1 1.8-.2 3.9-.8 4.9s-2.4 2-3.9 2.8c-.6.3-1.3.7-1.9 1-1.6 1-2.3 2.9-1.7 4.6s2.3 2.8 4.1 2.6c1.3-.1 3.2 0 5.4 2.6.9 1.1 2.2 3.5 3.4 6.5.7 1.6 2.4 2.6 4.2 2.4h.3c1.6-.3 2.8-1.7 3.1-3.3.2-1.4.2-2.7.3-3.8.2-3.9.3-5.5 4.8-8.5 1.3-.9 2-2.5 1.7-4-.4-1.7-1.6-2.9-3.2-3.2zm-.2 4.7c-5.8 3.8-5.9 6.7-6.1 10.8 0 1.1-.1 2.3-.3 3.5-.1.4-.4.8-.8.9h-.1c-.4.1-.9-.2-1.1-.6-1.4-3.3-2.7-5.9-3.8-7.2-2.3-2.8-5-4-8-3.7-.4.1-.9-.2-1-.7-.1-.4 0-.9.4-1.2.5-.3 1.1-.6 1.8-1 2-1.1 4.1-2.2 5.1-3.9 1-1.6 1.1-4.1 1.2-6.2 0-.8.1-1.5.1-2.1 0-.5.4-.8.9-.9.5 0 .9.2 1 .7l.2.6c.7 2.5 1.7 5.9 3.4 7.5 1.1 1 3 1.2 4.7 1.4.7.1 1.4.2 2 .3.4.1.7.4.8.8s-.1.8-.4 1z" />
    <path
      d="m30.9 129.9c-4.4 3.6-4.7 6.8-4.9 10.5-.8-1.6-1.7-3.1-2.6-4.2-1.8-2.2-3.9-3.6-6.2-4.2 1.8-1 3.6-2.2 4.6-4 .7-1.2 1-2.7 1.2-4.1.6 1.6 1.5 3.1 2.6 4.1 1.4 1.4 3.4 1.7 5.3 1.9z"
      fill="#ffe89a" />
    <path
      d="m33.7 128.3c-.6-.1-1.3-.2-2-.3-1.8-.2-3.6-.4-4.7-1.4-1.8-1.6-2.7-5.1-3.4-7.5l-.2-.6c-.1-.5-.6-.7-1-.7-.5 0-.8.4-.9.9-.1.7-.1 1.4-.1 2.1-.1 2.1-.2 4.6-1.2 6.2-1 1.7-3.1 2.8-5.1 3.9-.6.3-1.2.6-1.8 1-.4.2-.6.7-.4 1.2.2.4.6.7 1 .7 3-.3 5.7.9 8 3.7 1.1 1.3 2.5 3.9 3.8 7.2.2.4.6.7 1.1.6h.1c.4-.1.7-.4.8-.9.2-1.3.2-2.4.3-3.5.2-4.1.4-7 6.1-10.8.3-.2.5-.6.4-1-.2-.4-.5-.7-.8-.8zm-7.7 12.1c-.8-1.6-1.7-3.1-2.6-4.2-1.8-2.2-3.9-3.6-6.2-4.2 1.8-1 3.6-2.2 4.6-4 .7-1.2 1-2.7 1.2-4.1.6 1.6 1.5 3.1 2.6 4.1 1.5 1.3 3.5 1.7 5.3 1.9-4.5 3.6-4.8 6.9-4.9 10.5z"
      fill="#fdcd3a" />
  </g>
</svg>