<svg enable-background="new 0 0 126 83" viewBox="0 0 126 83" xmlns="http://www.w3.org/2000/svg"
  xmlns:xlink="http://www.w3.org/1999/xlink">
  <clipPath id="a">
    <path d="m39.9 46.3-.8-4.5-4.3-.4.8 4.5z" />
  </clipPath>
  <path
    d="m67 41.3c1.3 0 1.9 1.9 1.5 3.2-.6 2.1-2.3 4.1-3.8 5.7-1.6 1.7-3.5 2.5-6.2 2.8h-.1-.2c-.9 0-1.9-.2-2.9-.3-1.5-.2-3-.4-4.5-.8-1.1-.3-2.5-.6-3.4-1.5-.3-.3-.5-.6-.5-1.1-.4-2 1.5-3.5 2.9-3.5h.4c1.5.3 2.9.8 4.3 1.3 1 .2 2.3.7 3.5.7.3 0 .6 0 .8-.1h.2c.1 0 .2-.1.4-.1 2.7-1 3.9-2 5.6-4.7.5-.8.9-1.3 1.7-1.6zm0-1c-.2 0-.4 0-.6.1-1.1.4-1.7 1.2-2.2 2-1.6 2.5-2.6 3.3-5 4.2-.1 0-.2.1-.3.1h-.1-.1c-.2 0-.4.1-.6.1-.8 0-1.7-.3-2.6-.5-.2-.1-.4-.1-.6-.2-1.4-.5-2.8-1-4.4-1.3-.2 0-.4-.1-.6-.1-1.1 0-2.3.6-3 1.5s-1.1 2-.9 3.1c0 .8.4 1.4.8 1.7 1 1 2.4 1.4 3.5 1.7l.3.1c1.6.4 3.1.6 4.6.8.4 0 .7.1 1 .1.7.1 1.3.2 2 .2h.2.1.1.1.4c2.8-.4 4.8-1.3 6.4-3s3.4-3.8 4-6.1c.3-1.2.1-2.6-.6-3.6-.5-.6-1.1-.9-1.9-.9z" />
  <path
    d="m59 47.7c.1 0 .2-.1.4-.1 2.7-1 3.9-2 5.6-4.7.5-.8.9-1.3 1.7-1.6 1.5-.4 2.3 1.7 1.9 3.2-.6 2.1-2.3 4.1-3.8 5.7-1.6 1.7-3.6 2.5-6.3 2.8.6-.7 1-1.7 1.1-2.6-.1-.7-.2-1.8-.6-2.7z"
    fill="#fff" />
  <path
    d="m55.4 52.7c-1.5-.2-3-.4-4.5-.8-1.1-.3-2.5-.6-3.4-1.5-.3-.3-.5-.6-.5-1.1-.4-2.2 1.8-3.8 3.3-3.5s2.9.8 4.3 1.3c1.2.3 2.9.9 4.3.6.4.9.6 2 .5 2.7-.1 1-.5 1.9-1.1 2.6-.9 0-1.9-.2-2.9-.3z"
    fill="#0085c9" />
  <path
    d="m68.7 5.4c1.2.3 2.3 1.1 3 2 1.6 1.9 1.8 3.1.8 3.7-1.5.9-2.2.9-3.1.2-2-1.5-2.7-.2-3.9 1.4-1 1.3-2.8 1.5-4.1.6-1.3-1-1.5-2.8-.6-4.1.8-1.1 1.8-2.1 3-2.9 1.6-1.1 3-1.3 4.9-.9z"
    fill="#fff" />
  <path
    d="m65.7 10.8c-.2 0-.5 0-.7.1.2-.2.4-.4.4-.8.1-.6-.4-1.2-1-1.3-.3 0-.6 0-.8.2.3-.1.4-.4.4-.6.1-.6-.4-1.2-1-1.3-.1 0-.1 0-.2 0-1.2 1-1.9 2-2.1 2.2-1 1.3-.7 3.1.6 4.1s3.1.7 4.1-.6c.3-.4.7-.8 1.1-1.2-.1-.4-.4-.7-.8-.8"
    fill="#673101" />
  <path
    d="m60.1 26.1c0-3.5.9-7.5 3.2-10.3 2.9-3.5 7-6.6 11.5-7.6l1.4-.3h.1c4.4-1 9.5.2 13.6 2.2 3.2 1.6 5.6 4.9 7.1 8.1 1.8 3.8 2.4 8 1.9 12.1-.6 4.7.7 8.6 1.7 13.1 1.1 4.9 1.7 10 .3 14.8-1.9 6.6-7.6 9.4-13.4 10.4-.7.1-1.4.2-2.1.3h-.1l-1.4.1c-.8 0-1.5 0-2.2 0-4.8-.1-10.3-1.6-13.7-5.8-2.5-3-3.8-8.2-3.9-12.2-.1-3.1.5-6.2.7-9.3 0-.3.1-.6.1-.8-.4-.8-.8-1.6-1.3-2.4-.8-1.3-1.5-2.6-2-3.9-.3-.7-.5-1.4-.7-2.1-.2-.6-.1-1.3-.2-2-.1-.8-.2-1.6-.3-2.3-.1-.8-.3-1.5-.3-2.1z"
    fill="#00a2f6" />
  <path d="m74.7 8.2s.1 0 0 0z" fill="#00a2f6" />
  <g clip-rule="evenodd" fill-rule="evenodd">
    <path d="m90.6 82h28.7c.6 0 1.1-.5 1.1-1.1v-21.1c0-.6-.5-1.1-1.1-1.1h-28.7c-.6 0-1.1.5-1.1 1.1v21.2c0 .5.5 1 1.1 1z"
      fill="#94662a" />
    <path d="m7.6 82h83c.6 0 1.1-.5 1.1-1.1v-18.8c0-.6-.5-1.1-1.1-1.1h-83c-.6 0-1.1.5-1.1 1.1v18.8c0 .6.5 1.1 1.1 1.1z"
      fill="#dba460" />
    <path d="m120.4 61.1v6.2h-26-61.9-26v-5.6c0-.4.4-.7.8-.7h25.2 61.9 3.3z" fill="#d39f60" />
    <path
      d="m59.6 29.8c.1-.3.6-.9.6-1.2-.1-.7 0 .3-.1-1.3-.2-1.6 0-3.3.3-4.5.7-2.8 2.3-4.7 4.4-6.4 1.3-1 3.4-2.1 5-2.7 2-.8 4.7-1.3 6.8-1.2 3 .1 6 .5 8.4 2.5 2.3 1.9 3.7 4.6 4.9 7.3.1.3.9 2.1.9 2.4 1.2 4.7.7 9.1-2.6 12.1-1.6 1.4-3.5 2.5-5.5 3.2-4.5 1.5-8.2 2.6-13 2.5-3.6-.1-6.9-.6-9.3-3.5-1.1-1.3-1.7-3.4-1.8-5 .1-2 .3-2.7 1-4.2z"
      fill="#fff" />
    <path d="m76 32.4c.5 2.6 2.9 4.3 5.5 3.8 2.5-.5 4.2-3 3.7-5.6s-2.9-4.3-5.5-3.8c-2.5.5-4.2 3-3.7 5.6"
      fill="#ffc0bb" />
    <path d="m58.9 35.1c.6 2.4 2 4.3 3.3 4s1.9-2.5 1.3-4.9-2.1-4.1-3.4-3.7c-1.3.3-1.8 2.2-1.2 4.6" fill="#ffc0bb" />
    <path d="m67.6 31.4c.1.4.5.6 1 .5s.8-.4.7-.8-.5-.6-1-.5c-.4.1-.8.4-.7.8" />
    <path d="m65.2 31.1c.5-.2.8-.7.6-1.2v-.1c-.2-.5-.7-.8-1.2-.6s-.8.7-.6 1.2v.1c.2.4.7.7 1.2.6" />
    <path d="m73.6 29.8c.6-.2.9-.8.8-1.3v-.1c-.2-.6-.8-.9-1.3-.7-.6.2-.9.8-.8 1.3v.1c.1.5.7.9 1.3.7" />
  </g>
  <path
    d="m71.1 35.2c1.3 0 2.6-.5 3.6-1.5.3-.3.5-.6.4-.9 0-.2-.1-.4-.4-.6-.2-.1-.4-.1-.5.1s-.1.4.1.5c.1 0 .1.1.1.1s0 .1-.2.3c-1 1-2.5 1.5-3.7 1.2-.4-.1-.9-.3-1.2-.8-.1-.2-.3-.3-.5-.2s-.3.3-.2.5c.3.6.9 1.1 1.7 1.3.3-.1.6 0 .8 0z"
    fill="#221714" />
  <path
    d="m66.7 35.7c1.1 0 2.4-.6 2.6-1.7 0-.1 0-.2 0-.3 0-.2-.2-.4-.4-.4s-.4.2-.4.4v.2c-.1.7-1.1 1.1-1.9 1.1-.3 0-.7-.1-1.1-.4-.3-.3-.4-.4-.4-.4.1-.2.1-.4 0-.5-.2-.1-.4-.1-.6 0-.1.1-.2.3-.2.5 0 .3.2.6.7 1 .6.3 1.1.5 1.7.5z"
    fill="#221714" />
  <path
    d="m83.5 1.8c-1.3.6-2.2 1.8-2.8 3-1.2 2.5-1.1 3.9.2 4.6 1.8.9 2.3.2 3.1-.8 1.8-2.2 3.2-.8 5 .6 1.4 1.2 3.5 1 4.7-.4s1-3.5-.4-4.7c-1.2-1-2.6-1.9-4-2.5-2.2-.9-3.8-.8-5.8.2z"
    fill="#fff" />
  <path
    d="m88.2 7c.2-.1.5-.1.8 0-.3-.1-.6-.4-.7-.7-.3-.7.1-1.5.7-1.8.3-.1.7-.1.9 0-.3-.1-.5-.4-.6-.7-.3-.7.1-1.5.8-1.7h.2c1.5.9 2.6 1.7 2.9 2 1.4 1.2 1.6 3.3.4 4.7s-3.3 1.6-4.7.4c-.4-.3-1-.7-1.5-1.1 0-.5.3-.9.8-1.1"
    fill="#673101" />
  <path
    d="m85.5 45.9c.1 0 .3-.1.4-.1 3-1.3 4.2-2.4 5.9-5.5.5-.9.9-1.5 1.8-1.8 1.6-.5 2.7 1.7 2.2 3.4-.6 2.4-2.3 4.6-3.9 6.5-1.7 2-3.9 3-6.8 3.5.6-.8 1-1.9 1.1-3 0-.8-.3-2-.7-3z"
    fill="#fff" />
  <path
    d="m81.8 51.7c-1.7-.2-3.4-.3-5-.7-1.2-.3-2.8-.5-3.8-1.5-.3-.3-.5-.7-.7-1.1-.6-2.4 1.8-4.3 3.5-4 1.6.3 3.2.8 4.9 1.1 1.4.3 3.3.8 4.8.4.5 1 .7 2.2.7 3 0 1.1-.4 2.2-1.1 3-1.1 0-2.2-.1-3.3-.2z"
    fill="#0085c9" />
  <path clip-rule="evenodd" d="m55.6 55.2c0-.8.5-1.5 1.1-1.5h21.8c.6 0 1.1.7 1.1 1.5 0 .2-.1.4-.3.4h-23.5s-.2-.2-.2-.4z"
    fill="#cbcbcb" fill-rule="evenodd" />
  <path clip-rule="evenodd"
    d="m29.5 55.2c0-.8.5-1.5 1.3-1.5h25.4c.7 0 1.3.7 1.3 1.5 0 .2-.2.4-.3.4h-27.4c-.2 0-.3-.2-.3-.4z" fill="#909090"
    fill-rule="evenodd" />
  <path clip-rule="evenodd"
    d="m57.4 53.1-7.4-23.1c-.2-.5-.6-.9-1.2-.7l-25.7 3.4c-.6.1-1.2.9-1 1.5l5.9 19.6c.1.5.5.9 1.1.9h27.2c.8 0 1.3-.7 1.1-1.6z"
    fill="#d1d1d1" fill-rule="evenodd" />
  <g clip-path="url(#a)" enable-background="new">
    <path
      d="m37 41.6c.3 0 .6.3.6.6v.1h.5.1c.3 0 .6.3.7.6l.7 2.3c.1.4-.1.7-.4.7l-2 .1h-.1c-.3 0-.6-.3-.7-.6l-.3-.8c-.1.1-.1.1-.2.1s0 0-.1 0c-.2 0-.5-.2-.6-.5s.1-.5.3-.5c.1 0 .1 0 .2.1l-.2-.5c-.1-.4.1-.7.4-.7h.5v-.1c.1-.6.2-.9.6-.9-.1 0 0 0 0 0"
      fill="#a5a5a5" />
  </g>
  <path clip-rule="evenodd"
    d="m41.7 61.9h82.2c.6 0 1.1-.5 1.1-1.1v-4.1c0-.6-.5-1.1-1.1-1.1h-82.2c-.6 0-1.1.5-1.1 1.1v4.1c0 .7.5 1.1 1.1 1.1z"
    fill="#94662a" fill-rule="evenodd" />
  <path clip-rule="evenodd"
    d="m2.1 61.9h92.4c.6 0 1.1-.5 1.1-1.1v-4.1c0-.6-.5-1.1-1.1-1.1h-92.4c-.6 0-1.1.5-1.1 1.1v4.1c0 .7.5 1.1 1.1 1.1z"
    fill="#dba460" fill-rule="evenodd" />
  <path
    d="m102.5 54.2c.2-3.2-.1-6.7-1-11-.2-.8-.4-1.6-.5-2.3-.8-3.5-1.6-6.7-1.1-10.4.5-4.4-.2-8.8-2-12.7-.9-1.8-2.6-4.9-5.2-7.1.7-.3 1.3-.7 1.8-1.3.8-.9 1.1-2 1-3.2-.1-1.1-.6-2.2-1.5-2.9-1.4-1.1-2.8-2-4.3-2.7-1.3-.4-2.3-.6-3.3-.6-1.1 0-2.2.3-3.5.9s-2.4 1.8-3.2 3.4c-.4.8-.7 1.6-.8 2.2-1 0-1.9.1-2.8.3h-.1-.1l-1.4.3c-.5.1-.9.2-1.5.4-.2-.3-.4-.6-.7-.9-.9-1.1-2.2-2-3.5-2.3-.7-.2-1.3-.2-1.9-.2-1.4 0-2.6.4-3.8 1.3-1.1.7-2.1 1.7-3 2.8l-.1.1c0 .2-.1.3-.1.3v.1c-1.3 1.7-1 4.1.8 5.5.6.5 1.3.7 2 .8-.1.1-.1.1-.2.2-2.1 2.6-2.9 5.8-3.2 8.1-.3 1.4-.3 2.9-.2 4.2v.9.1.1c0 .1-.1.2-.2.3-.1.2-.3.4-.3.6-.4.8-.6 1.4-.8 2.2-.1.4-.2.9-.2 1.5 0 .3 0 .5-.1.9v.1.1c.1 1.6.7 4 2 5.6 1.1 1.3 2.4 2.3 4.1 2.9v.5c-1.3 1.9-2.3 2.7-4.5 3.5-.1 0-.2.1-.3.1 0 0 4.4-1.5 5.8-3.5.1-.5.1-1.1.1-1.6-1.6-.5-3.1-1.3-4.4-2.8-1.1-1.3-1.7-3.4-1.8-5 0-.3 0-.6.1-.9 0-.5.1-.9.2-1.3.1-.7.4-1.2.8-2.1.1-.3.6-.9.6-1.2-.1-.7 0 .3-.1-1.3-.2-1.4 0-2.8.2-3.9.4-2.7 1.3-5.5 3-7.6 1.5-1.8 3.4-3.5 5.4-4.9-.3-.2-.6-.2-.9-.2-.6 0-1 .3-1.4.8 0 0 0 .1.1.1-.3.3-.6.6-.9 1l-.1.1c-.1.2-.3.3-.4.4-.7.7-1.4 1-2.2 1-.6 0-1.2-.2-1.7-.6-1.3-1-1.6-2.8-.6-4.1.1-.1.2-.2.4-.4.8-1 1.7-1.9 2.7-2.6 1.1-.8 2.1-1.1 3.3-1.1.5 0 1.1.1 1.6.2 1.2.3 2.3 1.1 3 2 .5.5.8 1 1 1.4.7-.3 1.4-.5 2.1-.6l1.4-.3h.1c1.1-.2 2.2-.4 3.3-.4h.2c0-.7.3-1.6.8-2.7.6-1.2 1.5-2.4 2.8-3 1.2-.5 2.1-.8 3.1-.8.9 0 1.7.2 2.8.6 1.4.6 2.8 1.5 4 2.5 1.4 1.2 1.6 3.3.4 4.7-.6.7-1.5 1.1-2.4 1.2-.1 0-.2 0-.3 0-.8 0-1.5-.3-2.1-.8-.4-.3-1-.7-1.5-1.1v-.1c-.5-.3-1-.5-1.5-.5s-1 .2-1.5.7c1.9.5 3.8 1.1 5.5 2 3.2 1.6 5.6 4.9 7.1 8.1 1.8 3.8 2.4 8 1.9 12.1-.6 4.7.7 8.6 1.7 13.1.8 3.5 1.3 7.1 1 10.6l-.2 1.6h1.2v-1.1s0-.1 0-.2z" />
</svg>