<svg enable-background="new 0 0 1280 1280" viewBox="0 0 1280 1280" xmlns="http://www.w3.org/2000/svg"><path d="m1262 639.56c0 51.42-100.84 88.91-113.55 136.36-13.09 49.08 55.12 131.92 30.25 174.88-25.2 43.57-131.27 25.71-166.66 61.1-35.34 35.39-17.49 141.41-61.1 166.66-42.96 24.87-125.8-43.38-174.84-30.24-47.45 12.67-84.94 113.55-136.37 113.55-51.47 0-88.96-100.88-136.37-113.55-49.09-13.14-131.93 55.11-174.89 30.24-43.62-25.24-25.76-131.27-61.1-166.66-35.39-35.39-141.46-17.53-166.66-61.1-24.87-42.96 43.38-125.8 30.25-174.88-12.68-47.45-113.56-84.94-113.56-136.36s100.88-88.91 113.55-136.36c13.14-49.08-55.12-131.92-30.25-174.88 25.2-43.57 131.27-25.71 166.66-61.1s17.53-141.41 61.1-166.65c42.96-24.87 125.8 43.38 174.89 30.24 47.45-12.68 84.95-113.56 136.37-113.56s88.92 100.88 136.37 113.55c49.09 13.14 131.93-55.07 174.89-30.24 43.57 25.24 25.71 131.31 61.1 166.65 35.34 35.39 141.42 17.53 166.62 61.14 24.87 42.96-43.34 125.75-30.2 174.84 12.66 47.45 113.5 84.94 113.5 136.37z" fill="#3897f1"/><path d="m572.79 873.14-196.81-196.82 84.75-84.75 112.06 112.06 291.86-291.86 84.75 84.76z" fill="#fff"/></svg>